<svg width="20" height="20" viewBox="0 0 20 20" fill="none" xmlns="http://www.w3.org/2000/svg">
<path d="M11.6929 15.3034L10.5359 17.2317C10.4804 17.3243 10.4019 17.4009 10.3079 17.4541C10.214 17.5072 10.1079 17.5352 10 17.5352C9.89207 17.5352 9.78598 17.5072 9.69206 17.4541C9.59814 17.4009 9.5196 17.3243 9.46407 17.2317L8.30706 15.3034C8.25154 15.2109 8.17299 15.1343 8.07907 15.0811C7.98515 15.0279 7.87906 15 7.77113 15H3.125C2.95924 15 2.80027 14.9341 2.68306 14.8169C2.56585 14.6997 2.5 14.5407 2.5 14.375V4.375C2.5 4.20924 2.56585 4.05027 2.68306 3.93306C2.80027 3.81585 2.95924 3.75 3.125 3.75H16.875C17.0408 3.75 17.1997 3.81585 17.3169 3.93306C17.4342 4.05027 17.5 4.20924 17.5 4.375V14.375C17.5 14.4571 17.4838 14.5383 17.4524 14.6142C17.421 14.69 17.375 14.7589 17.3169 14.8169C17.2589 14.875 17.19 14.921 17.1142 14.9524C17.0383 14.9838 16.9571 15 16.875 15L12.2289 15C12.1209 15 12.0149 15.0279 11.9209 15.0811C11.827 15.1343 11.7485 15.2109 11.6929 15.3034Z" stroke="#1F1F1F" stroke-width="1.5" stroke-linecap="round" stroke-linejoin="round"/>
<path d="M10.445 10.8374H9.52567V10.3916C9.52567 10.1323 9.57783 9.90154 9.68215 9.69919C9.79299 9.49684 9.99837 9.25971 10.2983 8.98781C10.6047 8.7159 10.8101 8.5009 10.9144 8.34282C11.0253 8.18473 11.0807 8.00452 11.0807 7.80217C11.0807 7.50497 10.9829 7.271 10.7873 7.10027C10.5917 6.92322 10.3276 6.83469 9.99511 6.83469C9.42787 6.83469 9.04319 7.13821 8.84108 7.74526L8 7.40379C8.15648 6.98645 8.41076 6.64815 8.76284 6.38889C9.11491 6.12963 9.52567 6 9.99511 6C10.5819 6 11.0611 6.17073 11.4328 6.51219C11.8109 6.84734 12 7.27733 12 7.80217C12 8.06775 11.9315 8.32385 11.7946 8.57046C11.6577 8.81075 11.4002 9.09846 11.022 9.4336C10.6438 9.76875 10.4515 10.1007 10.445 10.4295V10.8374ZM10.6504 12.355C10.6504 12.5321 10.5852 12.6838 10.4548 12.8103C10.3309 12.9368 10.1744 13 9.98533 13C9.80277 13 9.64629 12.9368 9.51589 12.8103C9.38549 12.6838 9.32029 12.5321 9.32029 12.355C9.32029 12.1716 9.38549 12.0199 9.51589 11.8997C9.64629 11.7733 9.80277 11.71 9.98533 11.71C10.1744 11.71 10.3309 11.7733 10.4548 11.8997C10.5852 12.0199 10.6504 12.1716 10.6504 12.355Z" fill="#1F1F1F"/>
</svg>
