<svg width="20" height="20" viewBox="0 0 20 20" fill="none" xmlns="http://www.w3.org/2000/svg">
<path d="M17.6834 10C18.0982 9.54364 18.3297 8.95005 18.3334 8.33333C18.3334 7.67029 18.07 7.03441 17.6012 6.56557C17.1323 6.09673 16.4965 5.83333 15.8334 5.83333H11.5167C11.6499 5.45681 11.6909 5.05388 11.6363 4.65827C11.5817 4.26266 11.4331 3.88588 11.203 3.55949C10.9729 3.23309 10.6679 2.96656 10.3137 2.78223C9.95938 2.5979 9.56611 2.50112 9.16675 2.5H4.16675C3.50371 2.5 2.86782 2.76339 2.39898 3.23223C1.93014 3.70107 1.66675 4.33696 1.66675 5C1.67042 5.61671 1.90192 6.2103 2.31675 6.66667C1.90679 7.12502 1.68014 7.71839 1.68014 8.33333C1.68014 8.94828 1.90679 9.54165 2.31675 10C1.90679 10.4584 1.68014 11.0517 1.68014 11.6667C1.68014 12.2816 1.90679 12.875 2.31675 13.3333C1.90192 13.7897 1.67042 14.3833 1.66675 15C1.66675 15.663 1.93014 16.2989 2.39898 16.7678C2.86782 17.2366 3.50371 17.5 4.16675 17.5H15.8334C16.3149 17.4974 16.7854 17.3559 17.1883 17.0924C17.5913 16.8289 17.9096 16.4546 18.105 16.0145C18.3003 15.5745 18.3645 15.0874 18.2897 14.6117C18.2149 14.1361 18.0044 13.6922 17.6834 13.3333C18.0934 12.875 18.32 12.2816 18.32 11.6667C18.32 11.0517 18.0934 10.4584 17.6834 10ZM9.16675 15.8333H4.16675C3.94573 15.8333 3.73377 15.7455 3.57749 15.5893C3.42121 15.433 3.33341 15.221 3.33341 15C3.33341 14.779 3.42121 14.567 3.57749 14.4107C3.73377 14.2545 3.94573 14.1667 4.16675 14.1667H9.16675C9.38776 14.1667 9.59972 14.2545 9.756 14.4107C9.91228 14.567 10.0001 14.779 10.0001 15C10.0001 15.221 9.91228 15.433 9.756 15.5893C9.59972 15.7455 9.38776 15.8333 9.16675 15.8333ZM9.16675 12.5H4.16675C3.94573 12.5 3.73377 12.4122 3.57749 12.2559C3.42121 12.0996 3.33341 11.8877 3.33341 11.6667C3.33341 11.4457 3.42121 11.2337 3.57749 11.0774C3.73377 10.9211 3.94573 10.8333 4.16675 10.8333H9.16675C9.38776 10.8333 9.59972 10.9211 9.756 11.0774C9.91228 11.2337 10.0001 11.4457 10.0001 11.6667C10.0001 11.8877 9.91228 12.0996 9.756 12.2559C9.59972 12.4122 9.38776 12.5 9.16675 12.5ZM9.16675 9.16667H4.16675C3.94573 9.16667 3.73377 9.07887 3.57749 8.92259C3.42121 8.76631 3.33341 8.55435 3.33341 8.33333C3.33341 8.11232 3.42121 7.90036 3.57749 7.74408C3.73377 7.5878 3.94573 7.5 4.16675 7.5H9.16675C9.38776 7.5 9.59972 7.5878 9.756 7.74408C9.91228 7.90036 10.0001 8.11232 10.0001 8.33333C10.0001 8.55435 9.91228 8.76631 9.756 8.92259C9.59972 9.07887 9.38776 9.16667 9.16675 9.16667ZM9.16675 5.83333H4.16675C3.94573 5.83333 3.73377 5.74554 3.57749 5.58926C3.42121 5.43298 3.33341 5.22101 3.33341 5C3.33341 4.77899 3.42121 4.56702 3.57749 4.41074C3.73377 4.25446 3.94573 4.16667 4.16675 4.16667H9.16675C9.38776 4.16667 9.59972 4.25446 9.756 4.41074C9.91228 4.56702 10.0001 4.77899 10.0001 5C10.0001 5.22101 9.91228 5.43298 9.756 5.58926C9.59972 5.74554 9.38776 5.83333 9.16675 5.83333ZM16.4084 15.5917C16.3345 15.6696 16.2453 15.7313 16.1463 15.7729C16.0473 15.8145 15.9408 15.8351 15.8334 15.8333H11.5167C11.7166 15.2957 11.7166 14.7043 11.5167 14.1667H15.8334C16.0544 14.1667 16.2664 14.2545 16.4227 14.4107C16.579 14.567 16.6667 14.779 16.6667 15C16.6652 15.1108 16.6416 15.2203 16.5972 15.3219C16.5528 15.4235 16.4887 15.5152 16.4084 15.5917ZM16.4084 12.2583C16.3345 12.3362 16.2453 12.398 16.1463 12.4396C16.0473 12.4812 15.9408 12.5017 15.8334 12.5H11.5167C11.7166 11.9624 11.7166 11.3709 11.5167 10.8333H15.8334C16.0544 10.8333 16.2664 10.9211 16.4227 11.0774C16.579 11.2337 16.6667 11.4457 16.6667 11.6667C16.6652 11.7775 16.6416 11.8869 16.5972 11.9885C16.5528 12.0901 16.4887 12.1819 16.4084 12.2583ZM16.4084 8.925C16.3345 9.00291 16.2453 9.06463 16.1463 9.10623C16.0473 9.14783 15.9408 9.16841 15.8334 9.16667H11.5167C11.7166 8.62908 11.7166 8.03759 11.5167 7.5H15.8334C16.0544 7.5 16.2664 7.5878 16.4227 7.74408C16.579 7.90036 16.6667 8.11232 16.6667 8.33333C16.6652 8.44418 16.6416 8.5536 16.5972 8.6552C16.5528 8.7568 16.4887 8.84852 16.4084 8.925Z" fill="#1F1F1F"/>
</svg>
