<svg width="342" height="173" viewBox="0 0 342 173" fill="none" xmlns="http://www.w3.org/2000/svg">
<path d="M32.2204 160.896C26.2844 160.896 21.3191 158.899 17.3244 154.904C13.3671 150.909 11.3884 145.925 11.3884 139.952C11.3884 133.979 13.3671 129.013 17.3244 125.056C21.2817 121.024 26.2471 119.008 32.2204 119.008C38.2684 119.008 43.1777 121.192 46.9484 125.56L43.2524 129.144C40.3777 125.672 36.7004 123.936 32.2204 123.936C27.7777 123.936 24.0631 125.429 21.0764 128.416C18.1271 131.365 16.6524 135.211 16.6524 139.952C16.6524 144.693 18.1271 148.539 21.0764 151.488C24.0631 154.475 27.7777 155.968 32.2204 155.968C36.8871 155.968 40.9377 154.008 44.3724 150.088L48.1244 153.728C46.2204 156.005 43.8871 157.779 41.1244 159.048C38.3617 160.28 35.3937 160.896 32.2204 160.896ZM50.5875 146.28C50.5875 142.061 51.9129 138.571 54.5635 135.808C57.2515 133.045 60.6302 131.664 64.6995 131.664C68.7689 131.664 72.1289 133.045 74.7795 135.808C77.4675 138.571 78.8115 142.061 78.8115 146.28C78.8115 150.536 77.4675 154.027 74.7795 156.752C72.1289 159.515 68.7689 160.896 64.6995 160.896C60.6302 160.896 57.2515 159.515 54.5635 156.752C51.9129 153.989 50.5875 150.499 50.5875 146.28ZM55.7395 146.28C55.7395 149.229 56.5982 151.619 58.3155 153.448C60.0329 155.277 62.1609 156.192 64.6995 156.192C67.2382 156.192 69.3662 155.277 71.0835 153.448C72.8009 151.619 73.6595 149.229 73.6595 146.28C73.6595 143.368 72.8009 140.997 71.0835 139.168C69.3289 137.301 67.2009 136.368 64.6995 136.368C62.1982 136.368 60.0702 137.301 58.3155 139.168C56.5982 140.997 55.7395 143.368 55.7395 146.28ZM88.0966 160H82.9446V132.56H87.8726V136.368H88.0966C88.8806 135.024 90.0753 133.904 91.6806 133.008C93.3233 132.112 94.9473 131.664 96.5526 131.664C98.5686 131.664 100.342 132.131 101.873 133.064C103.403 133.997 104.523 135.285 105.233 136.928C107.51 133.419 110.665 131.664 114.697 131.664C117.87 131.664 120.315 132.635 122.033 134.576C123.75 136.517 124.609 139.28 124.609 142.864V160H119.457V143.648C119.457 141.072 118.99 139.224 118.057 138.104C117.123 136.947 115.555 136.368 113.353 136.368C111.374 136.368 109.713 137.208 108.369 138.888C107.025 140.568 106.353 142.547 106.353 144.824V160H101.201V143.648C101.201 141.072 100.734 139.224 99.8006 138.104C98.8673 136.947 97.2993 136.368 95.0966 136.368C93.1179 136.368 91.4566 137.208 90.1126 138.888C88.7686 140.568 88.0966 142.547 88.0966 144.824V160ZM137.296 123.096C137.296 124.104 136.941 124.963 136.232 125.672C135.523 126.381 134.664 126.736 133.656 126.736C132.648 126.736 131.789 126.381 131.08 125.672C130.371 124.963 130.016 124.104 130.016 123.096C130.016 122.088 130.371 121.229 131.08 120.52C131.789 119.811 132.648 119.456 133.656 119.456C134.664 119.456 135.523 119.811 136.232 120.52C136.941 121.229 137.296 122.088 137.296 123.096ZM136.232 132.56V160H131.08V132.56H136.232ZM142.937 132.56H147.865V136.368H148.089C148.873 135.024 150.067 133.904 151.673 133.008C153.315 132.112 155.014 131.664 156.769 131.664C160.129 131.664 162.705 132.635 164.497 134.576C166.326 136.48 167.241 139.205 167.241 142.752V160H162.089V143.088C161.977 138.608 159.718 136.368 155.313 136.368C153.259 136.368 151.542 137.208 150.161 138.888C148.779 140.531 148.089 142.509 148.089 144.824V160H142.937V132.56ZM185.335 156.192C187.874 156.192 189.946 155.277 191.551 153.448C193.231 151.619 194.071 149.229 194.071 146.28C194.071 143.405 193.231 141.035 191.551 139.168C189.908 137.301 187.836 136.368 185.335 136.368C182.871 136.368 180.799 137.301 179.119 139.168C177.439 141.035 176.599 143.405 176.599 146.28C176.599 149.192 177.439 151.563 179.119 153.392C180.799 155.259 182.871 156.192 185.335 156.192ZM185.167 172.992C183.636 172.992 182.199 172.787 180.855 172.376C179.511 172.003 178.279 171.461 177.159 170.752C176.076 170.043 175.143 169.203 174.359 168.232C173.575 167.261 172.978 166.179 172.567 164.984L177.439 162.968C177.999 164.573 178.97 165.861 180.351 166.832C181.732 167.803 183.338 168.288 185.167 168.288C187.967 168.288 190.151 167.448 191.719 165.768C193.287 164.088 194.071 161.773 194.071 158.824V156.192H193.847C192.876 157.648 191.551 158.805 189.871 159.664C188.228 160.485 186.436 160.896 184.495 160.896C180.911 160.896 177.831 159.496 175.255 156.696C172.716 153.821 171.447 150.349 171.447 146.28C171.447 142.211 172.716 138.757 175.255 135.92C177.831 133.083 180.911 131.664 184.495 131.664C186.436 131.664 188.228 132.093 189.871 132.952C191.551 133.773 192.876 134.912 193.847 136.368H194.071V132.56H198.999V158.824C198.999 163.229 197.748 166.683 195.247 169.184C192.708 171.723 189.348 172.992 185.167 172.992Z" fill="black"/>
<path d="M17.3244 154.904L16.4009 155.819L16.4052 155.823L17.3244 154.904ZM17.3244 125.056L18.2437 125.975L18.2522 125.967L17.3244 125.056ZM46.9484 125.56L47.8534 126.493L48.7342 125.639L47.9325 124.711L46.9484 125.56ZM43.2524 129.144L42.2511 129.973L43.1479 131.056L44.1574 130.077L43.2524 129.144ZM21.0764 128.416L21.9956 129.335L21.0764 128.416ZM21.0764 151.488L20.1572 152.407L21.0764 151.488ZM44.3724 150.088L45.2776 149.155L44.296 148.203L43.3946 149.231L44.3724 150.088ZM48.1244 153.728L49.1218 154.562L49.8961 153.636L49.0296 152.795L48.1244 153.728ZM41.1244 159.048L41.6539 160.235L41.6605 160.232L41.6672 160.229L41.1244 159.048ZM32.2204 159.596C26.6097 159.596 21.9811 157.722 18.2436 153.985L16.4052 155.823C20.6571 160.075 25.9591 162.196 32.2204 162.196V159.596ZM18.248 153.989C14.5479 150.254 12.6884 145.606 12.6884 139.952H10.0884C10.0884 146.244 12.1862 151.565 16.4009 155.819L18.248 153.989ZM12.6884 139.952C12.6884 134.298 14.5477 129.671 18.2436 125.975L16.4052 124.137C12.1864 128.355 10.0884 133.66 10.0884 139.952H12.6884ZM18.2522 125.967C21.9499 122.199 26.5738 120.308 32.2204 120.308V117.708C25.9204 117.708 20.6136 119.849 16.3966 124.145L18.2522 125.967ZM32.2204 120.308C37.9112 120.308 42.4539 122.343 45.9644 126.409L47.9325 124.711C43.9016 120.041 38.6256 117.708 32.2204 117.708V120.308ZM46.0434 124.627L42.3474 128.211L44.1574 130.077L47.8534 126.493L46.0434 124.627ZM44.2537 128.315C41.1339 124.547 37.0904 122.636 32.2204 122.636V125.236C36.3104 125.236 39.6216 126.797 42.2511 129.973L44.2537 128.315ZM32.2204 122.636C27.4528 122.636 23.4013 124.253 20.1572 127.497L21.9956 129.335C24.7248 126.606 28.1026 125.236 32.2204 125.236V122.636ZM20.1572 127.497C16.93 130.724 15.3524 134.917 15.3524 139.952H17.9524C17.9524 135.504 19.3241 132.007 21.9956 129.335L20.1572 127.497ZM15.3524 139.952C15.3524 144.987 16.93 149.18 20.1572 152.407L21.9956 150.569C19.3241 147.897 17.9524 144.4 17.9524 139.952H15.3524ZM20.1572 152.407C23.4013 155.651 27.4528 157.268 32.2204 157.268V154.668C28.1026 154.668 24.7248 153.298 21.9956 150.569L20.1572 152.407ZM32.2204 157.268C37.3079 157.268 41.7009 155.11 45.3502 150.945L43.3946 149.231C40.1746 152.906 36.4662 154.668 32.2204 154.668V157.268ZM43.4672 151.021L47.2192 154.661L49.0296 152.795L45.2776 149.155L43.4672 151.021ZM47.1271 152.894C45.35 155.02 43.1733 156.676 40.5817 157.867L41.6672 160.229C44.6009 158.881 47.0908 156.991 49.1218 154.562L47.1271 152.894ZM40.5949 157.861C38.007 159.015 35.2204 159.596 32.2204 159.596V162.196C35.567 162.196 38.7164 161.545 41.6539 160.235L40.5949 157.861ZM54.5635 135.808L53.6318 134.901L53.6255 134.908L54.5635 135.808ZM74.7795 135.808L73.8415 136.708L73.8478 136.715L74.7795 135.808ZM74.7795 156.752L73.854 155.839L73.8477 155.846L73.8415 155.852L74.7795 156.752ZM54.5635 156.752L53.6255 157.652L53.6318 157.659L54.5635 156.752ZM58.3155 153.448L57.3677 154.338L58.3155 153.448ZM71.0835 139.168L72.0313 138.278L72.0307 138.278L71.0835 139.168ZM58.3155 139.168L57.3683 138.278L57.3677 138.278L58.3155 139.168ZM51.8875 146.28C51.8875 142.36 53.1078 139.203 55.5016 136.708L53.6255 134.908C50.718 137.938 49.2875 141.763 49.2875 146.28H51.8875ZM55.4953 136.715C57.9237 134.219 60.9593 132.964 64.6995 132.964V130.364C60.3011 130.364 56.5793 131.872 53.6318 134.901L55.4953 136.715ZM64.6995 132.964C68.4396 132.964 71.4527 134.218 73.8415 136.708L75.7176 134.908C72.8051 131.872 69.0981 130.364 64.6995 130.364V132.964ZM73.8478 136.715C76.2763 139.211 77.5115 142.365 77.5115 146.28H80.1115C80.1115 141.758 78.6588 137.931 75.7113 134.901L73.8478 136.715ZM77.5115 146.28C77.5115 150.236 76.2742 153.385 73.854 155.839L75.7051 157.665C78.6608 154.668 80.1115 150.836 80.1115 146.28H77.5115ZM73.8415 155.852C71.4527 158.342 68.4396 159.596 64.6995 159.596V162.196C69.0981 162.196 72.8051 160.688 75.7176 157.652L73.8415 155.852ZM64.6995 159.596C60.9593 159.596 57.9237 158.341 55.4953 155.845L53.6318 157.659C56.5793 160.688 60.3011 162.196 64.6995 162.196V159.596ZM55.5016 155.852C53.1078 153.357 51.8875 150.2 51.8875 146.28H49.2875C49.2875 150.797 50.718 154.622 53.6255 157.652L55.5016 155.852ZM54.4395 146.28C54.4395 149.498 55.3851 152.226 57.3677 154.338L59.2633 152.558C57.8113 151.012 57.0395 148.961 57.0395 146.28H54.4395ZM57.3677 154.338C59.3341 156.432 61.8066 157.492 64.6995 157.492V154.892C62.5151 154.892 60.7317 154.122 59.2633 152.558L57.3677 154.338ZM64.6995 157.492C67.5924 157.492 70.065 156.432 72.0313 154.338L70.1357 152.558C68.6674 154.122 66.884 154.892 64.6995 154.892V157.492ZM72.0313 154.338C74.014 152.226 74.9595 149.498 74.9595 146.28H72.3595C72.3595 148.961 71.5877 151.012 70.1357 152.558L72.0313 154.338ZM74.9595 146.28C74.9595 143.094 74.011 140.387 72.0313 138.278L70.1357 140.058C71.5907 141.608 72.3595 143.642 72.3595 146.28H74.9595ZM72.0307 138.278C70.0371 136.157 67.5693 135.068 64.6995 135.068V137.668C66.8324 137.668 68.6206 138.446 70.1363 140.058L72.0307 138.278ZM64.6995 135.068C61.8298 135.068 59.3619 136.157 57.3683 138.278L59.2627 140.058C60.7784 138.446 62.5666 137.668 64.6995 137.668V135.068ZM57.3677 138.278C55.388 140.387 54.4395 143.094 54.4395 146.28H57.0395C57.0395 143.642 57.8084 141.608 59.2633 140.058L57.3677 138.278ZM88.0966 160V161.3H89.3966V160H88.0966ZM82.9446 160H81.6446V161.3H82.9446V160ZM82.9446 132.56V131.26H81.6446V132.56H82.9446ZM87.8726 132.56H89.1726V131.26H87.8726V132.56ZM87.8726 136.368H86.5726V137.668H87.8726V136.368ZM88.0966 136.368V137.668H88.8433L89.2195 137.023L88.0966 136.368ZM91.6806 133.008L91.0581 131.867L91.047 131.873L91.6806 133.008ZM105.233 136.928L104.039 137.443L105.002 139.672L106.323 137.636L105.233 136.928ZM124.609 160V161.3H125.909V160H124.609ZM119.457 160H118.157V161.3H119.457V160ZM118.057 138.104L117.045 138.92L117.051 138.928L117.058 138.936L118.057 138.104ZM108.369 138.888L109.384 139.7V139.7L108.369 138.888ZM106.353 160V161.3H107.653V160H106.353ZM101.201 160H99.9006V161.3H101.201V160ZM99.8006 138.104L98.7887 138.92L98.7952 138.928L98.8019 138.936L99.8006 138.104ZM90.1126 138.888L91.1277 139.7L90.1126 138.888ZM88.0966 158.7H82.9446V161.3H88.0966V158.7ZM84.2446 160V132.56H81.6446V160H84.2446ZM82.9446 133.86H87.8726V131.26H82.9446V133.86ZM86.5726 132.56V136.368H89.1726V132.56H86.5726ZM87.8726 137.668H88.0966V135.068H87.8726V137.668ZM89.2195 137.023C89.8666 135.914 90.8748 134.947 92.3142 134.143L91.047 131.873C89.2757 132.861 87.8946 134.134 86.9737 135.713L89.2195 137.023ZM92.3031 134.149C93.7866 133.34 95.1983 132.964 96.5526 132.964V130.364C94.6962 130.364 92.8599 130.884 91.0581 131.867L92.3031 134.149ZM96.5526 132.964C98.3603 132.964 99.8936 133.38 101.196 134.174L102.549 131.954C100.79 130.881 98.7769 130.364 96.5526 130.364V132.964ZM101.196 134.174C102.497 134.968 103.437 136.048 104.039 137.443L106.426 136.413C105.61 134.523 104.309 133.027 102.549 131.954L101.196 134.174ZM106.323 137.636C108.372 134.479 111.125 132.964 114.697 132.964V130.364C110.205 130.364 106.648 132.358 104.142 136.22L106.323 137.636ZM114.697 132.964C117.588 132.964 119.643 133.836 121.059 135.437L123.006 133.715C120.988 131.433 118.152 130.364 114.697 130.364V132.964ZM121.059 135.437C122.497 137.063 123.309 139.476 123.309 142.864H125.909C125.909 139.084 125.002 135.971 123.006 133.715L121.059 135.437ZM123.309 142.864V160H125.909V142.864H123.309ZM124.609 158.7H119.457V161.3H124.609V158.7ZM120.757 160V143.648H118.157V160H120.757ZM120.757 143.648C120.757 140.977 120.285 138.747 119.055 137.272L117.058 138.936C117.695 139.701 118.157 141.167 118.157 143.648H120.757ZM119.069 137.288C117.788 135.7 115.754 135.068 113.353 135.068V137.668C115.357 137.668 116.459 138.194 117.045 138.92L119.069 137.288ZM113.353 135.068C110.941 135.068 108.92 136.118 107.353 138.076L109.384 139.7C110.506 138.298 111.807 137.668 113.353 137.668V135.068ZM107.353 138.076C105.814 140 105.053 142.27 105.053 144.824H107.653C107.653 142.823 108.235 141.135 109.384 139.7L107.353 138.076ZM105.053 144.824V160H107.653V144.824H105.053ZM106.353 158.7H101.201V161.3H106.353V158.7ZM102.501 160V143.648H99.9006V160H102.501ZM102.501 143.648C102.501 140.977 102.029 138.747 100.799 137.272L98.8019 138.936C99.439 139.701 99.9006 141.167 99.9006 143.648H102.501ZM100.813 137.288C99.5318 135.7 97.4977 135.068 95.0966 135.068V137.668C97.1008 137.668 98.2028 138.194 98.7887 138.92L100.813 137.288ZM95.0966 135.068C92.6852 135.068 90.6635 136.118 89.0975 138.076L91.1277 139.7C92.2497 138.298 93.5507 137.668 95.0966 137.668V135.068ZM89.0975 138.076C87.5578 140 86.7966 142.27 86.7966 144.824H89.3966C89.3966 142.823 89.9794 141.135 91.1277 139.7L89.0975 138.076ZM86.7966 144.824V160H89.3966V144.824H86.7966ZM136.232 125.672L135.313 124.753V124.753L136.232 125.672ZM131.08 125.672L130.161 126.591L131.08 125.672ZM131.08 120.52L130.161 119.601L131.08 120.52ZM136.232 120.52L135.313 121.439L136.232 120.52ZM136.232 132.56H137.532V131.26H136.232V132.56ZM136.232 160V161.3H137.532V160H136.232ZM131.08 160H129.78V161.3H131.08V160ZM131.08 132.56V131.26H129.78V132.56H131.08ZM135.996 123.096C135.996 123.761 135.777 124.289 135.313 124.753L137.151 126.591C138.106 125.637 138.596 124.447 138.596 123.096H135.996ZM135.313 124.753C134.849 125.217 134.321 125.436 133.656 125.436V128.036C135.007 128.036 136.197 127.546 137.151 126.591L135.313 124.753ZM133.656 125.436C132.991 125.436 132.464 125.217 131.999 124.753L130.161 126.591C131.115 127.546 132.305 128.036 133.656 128.036V125.436ZM131.999 124.753C131.535 124.289 131.316 123.761 131.316 123.096H128.716C128.716 124.447 129.206 125.637 130.161 126.591L131.999 124.753ZM131.316 123.096C131.316 122.431 131.535 121.903 131.999 121.439L130.161 119.601C129.206 120.555 128.716 121.745 128.716 123.096H131.316ZM131.999 121.439C132.464 120.975 132.991 120.756 133.656 120.756V118.156C132.305 118.156 131.115 118.646 130.161 119.601L131.999 121.439ZM133.656 120.756C134.321 120.756 134.849 120.975 135.313 121.439L137.151 119.601C136.197 118.646 135.007 118.156 133.656 118.156V120.756ZM135.313 121.439C135.777 121.903 135.996 122.431 135.996 123.096H138.596C138.596 121.745 138.106 120.555 137.151 119.601L135.313 121.439ZM134.932 132.56V160H137.532V132.56H134.932ZM136.232 158.7H131.08V161.3H136.232V158.7ZM132.38 160V132.56H129.78V160H132.38ZM131.08 133.86H136.232V131.26H131.08V133.86ZM142.937 132.56V131.26H141.637V132.56H142.937ZM147.865 132.56H149.165V131.26H147.865V132.56ZM147.865 136.368H146.565V137.668H147.865V136.368ZM148.089 136.368V137.668H148.835L149.212 137.023L148.089 136.368ZM151.673 133.008L151.05 131.867L151.039 131.873L151.673 133.008ZM164.497 134.576L163.542 135.458L163.55 135.467L163.559 135.477L164.497 134.576ZM167.241 160V161.3H168.541V160H167.241ZM162.089 160H160.789V161.3H162.089V160ZM162.089 143.088H163.389V143.072L163.388 143.056L162.089 143.088ZM150.161 138.888L151.156 139.725L151.16 139.719L151.165 139.714L150.161 138.888ZM148.089 160V161.3H149.389V160H148.089ZM142.937 160H141.637V161.3H142.937V160ZM142.937 133.86H147.865V131.26H142.937V133.86ZM146.565 132.56V136.368H149.165V132.56H146.565ZM147.865 137.668H148.089V135.068H147.865V137.668ZM149.212 137.023C149.859 135.914 150.867 134.947 152.306 134.143L151.039 131.873C149.268 132.861 147.887 134.134 146.966 135.713L149.212 137.023ZM152.295 134.149C153.76 133.35 155.246 132.964 156.769 132.964V130.364C154.782 130.364 152.871 130.874 151.05 131.867L152.295 134.149ZM156.769 132.964C159.871 132.964 162.059 133.851 163.542 135.458L165.452 133.694C163.351 131.418 160.387 130.364 156.769 130.364V132.964ZM163.559 135.477C165.085 137.065 165.941 139.423 165.941 142.752H168.541C168.541 138.988 167.567 135.895 165.434 133.675L163.559 135.477ZM165.941 142.752V160H168.541V142.752H165.941ZM167.241 158.7H162.089V161.3H167.241V158.7ZM163.389 160V143.088H160.789V160H163.389ZM163.388 143.056C163.327 140.618 162.676 138.563 161.226 137.125C159.772 135.683 157.724 135.068 155.313 135.068V137.668C157.307 137.668 158.591 138.173 159.395 138.971C160.204 139.773 160.738 141.078 160.789 143.12L163.388 143.056ZM155.313 135.068C152.845 135.068 150.768 136.102 149.157 138.062L151.165 139.714C152.316 138.314 153.674 137.668 155.313 137.668V135.068ZM149.166 138.051C147.571 139.947 146.789 142.229 146.789 144.824H149.389C149.389 142.79 149.987 141.114 151.156 139.725L149.166 138.051ZM146.789 144.824V160H149.389V144.824H146.789ZM148.089 158.7H142.937V161.3H148.089V158.7ZM144.237 160V132.56H141.637V160H144.237ZM191.551 153.448L190.593 152.569L190.583 152.579L190.574 152.591L191.551 153.448ZM191.551 139.168L190.575 140.027L190.58 140.032L190.585 140.038L191.551 139.168ZM179.119 139.168L180.085 140.038L179.119 139.168ZM179.119 153.392L180.085 152.522L180.076 152.513L179.119 153.392ZM180.855 172.376L181.235 171.133L181.219 171.128L181.203 171.123L180.855 172.376ZM177.159 170.752L176.446 171.839L176.455 171.845L176.463 171.85L177.159 170.752ZM174.359 168.232L175.37 167.415L174.359 168.232ZM172.567 164.984L172.07 163.783L170.94 164.25L171.338 165.407L172.567 164.984ZM177.439 162.968L178.666 162.54L178.213 161.241L176.942 161.767L177.439 162.968ZM180.351 166.832L179.603 167.896H179.603L180.351 166.832ZM191.719 165.768L192.669 166.655L191.719 165.768ZM194.071 156.192H195.371V154.892H194.071V156.192ZM193.847 156.192V154.892H193.151L192.765 155.471L193.847 156.192ZM189.871 159.664L190.452 160.827L190.463 160.822L189.871 159.664ZM175.255 156.696L174.28 157.557L174.289 157.566L174.298 157.576L175.255 156.696ZM175.255 135.92L174.292 135.046L174.286 135.053L175.255 135.92ZM189.871 132.952L189.269 134.104L189.284 134.112L189.3 134.12L189.871 132.952ZM193.847 136.368L192.765 137.089L193.151 137.668H193.847V136.368ZM194.071 136.368V137.668H195.371V136.368H194.071ZM194.071 132.56V131.26H192.771V132.56H194.071ZM198.999 132.56H200.299V131.26H198.999V132.56ZM195.247 169.184L194.328 168.265L195.247 169.184ZM185.335 157.492C188.229 157.492 190.664 156.43 192.528 154.305L190.574 152.591C189.227 154.125 187.518 154.892 185.335 154.892V157.492ZM192.508 154.327C194.449 152.214 195.371 149.49 195.371 146.28H192.771C192.771 148.968 192.013 151.023 190.593 152.569L192.508 154.327ZM195.371 146.28C195.371 143.134 194.443 140.438 192.517 138.298L190.585 140.038C192.019 141.631 192.771 143.677 192.771 146.28H195.371ZM192.527 138.309C190.636 136.16 188.207 135.068 185.335 135.068V137.668C187.465 137.668 189.181 138.443 190.575 140.027L192.527 138.309ZM185.335 135.068C182.494 135.068 180.074 136.164 178.153 138.298L180.085 140.038C181.524 138.439 183.247 137.668 185.335 137.668V135.068ZM178.153 138.298C176.227 140.438 175.299 143.134 175.299 146.28H177.899C177.899 143.677 178.651 141.631 180.085 140.038L178.153 138.298ZM175.299 146.28C175.299 149.458 176.224 152.161 178.161 154.271L180.076 152.513C178.654 150.964 177.899 148.926 177.899 146.28H175.299ZM178.153 154.262C180.074 156.396 182.494 157.492 185.335 157.492V154.892C183.247 154.892 181.524 154.121 180.085 152.522L178.153 154.262ZM185.167 171.692C183.754 171.692 182.445 171.503 181.235 171.133L180.475 173.619C181.953 174.071 183.519 174.292 185.167 174.292V171.692ZM181.203 171.123C179.975 170.782 178.861 170.291 177.854 169.654L176.463 171.85C177.697 172.631 179.047 173.223 180.507 173.629L181.203 171.123ZM177.871 169.665C176.898 169.027 176.066 168.277 175.37 167.415L173.348 169.049C174.22 170.129 175.255 171.059 176.446 171.839L177.871 169.665ZM175.37 167.415C174.683 166.564 174.158 165.615 173.796 164.561L171.338 165.407C171.797 166.743 172.467 167.959 173.348 169.049L175.37 167.415ZM173.064 166.185L177.936 164.169L176.942 161.767L172.07 163.783L173.064 166.185ZM176.211 163.396C176.86 165.256 177.998 166.767 179.603 167.896L181.098 165.768C179.941 164.955 179.137 163.89 178.666 162.54L176.211 163.396ZM179.603 167.896C181.222 169.033 183.094 169.588 185.167 169.588V166.988C183.582 166.988 182.242 166.572 181.098 165.768L179.603 167.896ZM185.167 169.588C188.242 169.588 190.803 168.655 192.669 166.655L190.769 164.881C189.499 166.241 187.691 166.988 185.167 166.988V169.588ZM192.669 166.655C194.52 164.672 195.371 162.006 195.371 158.824H192.771C192.771 161.541 192.054 163.504 190.769 164.881L192.669 166.655ZM195.371 158.824V156.192H192.771V158.824H195.371ZM194.071 154.892H193.847V157.492H194.071V154.892ZM192.765 155.471C191.927 156.728 190.777 157.741 189.279 158.506L190.463 160.822C192.325 159.87 193.825 158.568 194.929 156.913L192.765 155.471ZM189.29 158.501C187.838 159.227 186.246 159.596 184.495 159.596V162.196C186.626 162.196 188.619 161.743 190.452 160.827L189.29 158.501ZM184.495 159.596C181.299 159.596 178.559 158.367 176.212 155.816L174.298 157.576C177.103 160.625 180.523 162.196 184.495 162.196V159.596ZM176.229 155.835C173.914 153.214 172.747 150.053 172.747 146.28H170.147C170.147 150.645 171.518 154.429 174.28 157.557L176.229 155.835ZM172.747 146.28C172.747 142.507 173.914 139.369 176.224 136.787L174.286 135.053C171.519 138.146 170.147 141.915 170.147 146.28H172.747ZM176.217 136.794C178.566 134.207 181.305 132.964 184.495 132.964V130.364C180.517 130.364 177.096 131.959 174.292 135.046L176.217 136.794ZM184.495 132.964C186.237 132.964 187.821 133.347 189.269 134.104L190.473 131.8C188.636 130.839 186.636 130.364 184.495 130.364V132.964ZM189.3 134.12C190.788 134.847 191.931 135.838 192.765 137.089L194.929 135.647C193.821 133.986 192.314 132.699 190.442 131.784L189.3 134.12ZM193.847 137.668H194.071V135.068H193.847V137.668ZM195.371 136.368V132.56H192.771V136.368H195.371ZM194.071 133.86H198.999V131.26H194.071V133.86ZM197.699 132.56V158.824H200.299V132.56H197.699ZM197.699 158.824C197.699 162.974 196.529 166.064 194.328 168.265L196.166 170.103C198.968 167.301 200.299 163.485 200.299 158.824H197.699ZM194.328 168.265C192.073 170.519 189.065 171.692 185.167 171.692V174.292C189.632 174.292 193.343 172.926 196.166 170.103L194.328 168.265ZM235.449 158.432L236.252 159.454L235.449 158.432ZM220.273 158.768L219.53 159.835L219.537 159.839L219.543 159.844L220.273 158.768ZM215.793 153.056L215.283 151.86L214.133 152.351L214.578 153.519L215.793 153.056ZM220.385 151.096L221.588 150.604L221.089 149.382L219.875 149.9L220.385 151.096ZM223.297 154.96L222.527 156.007L222.544 156.02L222.562 156.032L223.297 154.96ZM231.641 155.24L230.946 154.142L230.937 154.147L230.929 154.153L231.641 155.24ZM229.289 148.856L229.669 147.613L229.637 147.603L229.605 147.595L229.289 148.856ZM224.585 147.68L224.268 148.941L224.27 148.941L224.585 147.68ZM219.601 133.96L220.375 135.005L220.378 135.002L219.601 133.96ZM233.993 133.4L233.328 134.517L233.337 134.522L233.993 133.4ZM238.137 138.048L238.635 139.249L239.825 138.756L239.343 137.561L238.137 138.048ZM233.545 139.952L232.36 140.487L232.879 141.636L234.043 141.153L233.545 139.952ZM230.969 137.264L230.316 138.388L230.338 138.401L230.359 138.412L230.969 137.264ZM223.409 137.264L222.724 136.159L222.715 136.165L222.706 136.17L223.409 137.264ZM226.265 143.088L226.589 141.829L226.571 141.824L226.554 141.82L226.265 143.088ZM230.409 144.152L230.086 145.411L230.098 145.414L230.409 144.152ZM237.285 152.384C237.285 154.326 236.463 155.982 234.646 157.41L236.252 159.454C238.616 157.597 239.885 155.221 239.885 152.384H237.285ZM234.646 157.41C232.826 158.839 230.494 159.596 227.553 159.596V162.196C230.959 162.196 233.891 161.31 236.252 159.454L234.646 157.41ZM227.553 159.596C225.025 159.596 222.858 158.951 221.003 157.692L219.543 159.844C221.869 161.422 224.556 162.196 227.553 162.196V159.596ZM221.016 157.701C219.137 156.393 217.81 154.698 217.008 152.593L214.578 153.519C215.569 156.118 217.228 158.231 219.53 159.835L221.016 157.701ZM216.304 154.252L220.896 152.292L219.875 149.9L215.283 151.86L216.304 154.252ZM219.182 151.588C219.933 153.424 221.042 154.915 222.527 156.007L224.067 153.913C223.014 153.138 222.182 152.054 221.588 150.604L219.182 151.588ZM222.562 156.032C224.077 157.071 225.751 157.604 227.553 157.604V155.004C226.295 155.004 225.131 154.641 224.032 153.888L222.562 156.032ZM227.553 157.604C229.381 157.604 231.009 157.208 232.354 156.327L230.929 154.153C230.108 154.69 229.011 155.004 227.553 155.004V157.604ZM232.337 156.338C233.68 155.487 234.621 154.291 234.621 152.72H232.021C232.021 153.09 231.842 153.574 230.946 154.142L232.337 156.338ZM234.621 152.72C234.621 151.465 234.123 150.372 233.213 149.499C232.338 148.661 231.117 148.055 229.669 147.613L228.909 150.099C230.149 150.478 230.945 150.927 231.414 151.377C231.847 151.792 232.021 152.22 232.021 152.72H234.621ZM229.605 147.595L224.901 146.419L224.27 148.941L228.974 150.117L229.605 147.595ZM224.903 146.419C222.354 145.778 220.593 144.877 219.482 143.805C218.409 142.769 217.877 141.514 217.877 139.952H215.277C215.277 142.198 216.08 144.135 217.676 145.675C219.235 147.179 221.477 148.238 224.268 148.941L224.903 146.419ZM217.877 139.952C217.877 137.864 218.689 136.254 220.375 135.005L218.827 132.915C216.482 134.653 215.277 137.037 215.277 139.952H217.877ZM220.378 135.002C222.158 133.676 224.48 132.964 227.441 132.964V130.364C224.056 130.364 221.151 131.183 218.824 132.918L220.378 135.002ZM227.441 132.964C229.651 132.964 231.602 133.488 233.328 134.517L234.659 132.283C232.501 130.997 230.084 130.364 227.441 130.364V132.964ZM233.337 134.522C235.092 135.549 236.266 136.886 236.932 138.535L239.343 137.561C238.441 135.328 236.852 133.566 234.65 132.278L233.337 134.522ZM237.639 136.847L233.047 138.751L234.043 141.153L238.635 139.249L237.639 136.847ZM234.73 139.417C234.081 137.98 233.01 136.876 231.579 136.116L230.359 138.412C231.318 138.921 231.964 139.61 232.36 140.487L234.73 139.417ZM231.622 136.14C230.249 135.343 228.714 134.956 227.049 134.956V137.556C228.297 137.556 229.375 137.841 230.316 138.388L231.622 136.14ZM227.049 134.956C225.477 134.956 224.024 135.353 222.724 136.159L224.095 138.369C224.96 137.831 225.934 137.556 227.049 137.556V134.956ZM222.706 136.17C221.407 137.006 220.541 138.191 220.541 139.728H223.141C223.141 139.324 223.321 138.866 224.112 138.358L222.706 136.17ZM220.541 139.728C220.541 140.995 221.166 142.024 222.161 142.779C223.11 143.5 224.422 144.001 225.976 144.356L226.554 141.82C225.159 141.503 224.259 141.108 223.733 140.709C223.254 140.344 223.141 140.029 223.141 139.728H220.541ZM225.942 144.347L230.086 145.411L230.733 142.893L226.589 141.829L225.942 144.347ZM230.098 145.414C232.69 146.053 234.484 146.991 235.619 148.134C236.721 149.244 237.285 150.628 237.285 152.384H239.885C239.885 149.996 239.087 147.936 237.464 146.302C235.873 144.701 233.579 143.595 230.72 142.89L230.098 145.414ZM245.751 135.808L244.819 134.901L244.813 134.908L245.751 135.808ZM265.967 135.808L265.029 136.708L265.035 136.715L265.967 135.808ZM265.967 156.752L265.041 155.839L265.035 155.846L265.029 155.852L265.967 156.752ZM245.751 156.752L244.813 157.652L244.819 157.659L245.751 156.752ZM249.503 153.448L248.555 154.338L249.503 153.448ZM262.271 139.168L263.219 138.278L263.218 138.278L262.271 139.168ZM249.503 139.168L248.556 138.278L248.555 138.278L249.503 139.168ZM243.075 146.28C243.075 142.36 244.295 139.203 246.689 136.708L244.813 134.908C241.905 137.938 240.475 141.763 240.475 146.28H243.075ZM246.683 136.715C249.111 134.219 252.147 132.964 255.887 132.964V130.364C251.489 130.364 247.767 131.872 244.819 134.901L246.683 136.715ZM255.887 132.964C259.627 132.964 262.64 134.218 265.029 136.708L266.905 134.908C263.993 131.872 260.286 130.364 255.887 130.364V132.964ZM265.035 136.715C267.464 139.211 268.699 142.365 268.699 146.28H271.299C271.299 141.758 269.846 137.931 266.899 134.901L265.035 136.715ZM268.699 146.28C268.699 150.236 267.462 153.385 265.041 155.839L266.893 157.665C269.848 154.668 271.299 150.836 271.299 146.28H268.699ZM265.029 155.852C262.64 158.342 259.627 159.596 255.887 159.596V162.196C260.286 162.196 263.993 160.688 266.905 157.652L265.029 155.852ZM255.887 159.596C252.147 159.596 249.111 158.341 246.683 155.845L244.819 157.659C247.767 160.688 251.489 162.196 255.887 162.196V159.596ZM246.689 155.852C244.295 153.357 243.075 150.2 243.075 146.28H240.475C240.475 150.797 241.905 154.622 244.813 157.652L246.689 155.852ZM245.627 146.28C245.627 149.498 246.573 152.226 248.555 154.338L250.451 152.558C248.999 151.012 248.227 148.961 248.227 146.28H245.627ZM248.555 154.338C250.522 156.432 252.994 157.492 255.887 157.492V154.892C253.703 154.892 251.919 154.122 250.451 152.558L248.555 154.338ZM255.887 157.492C258.78 157.492 261.253 156.432 263.219 154.338L261.323 152.558C259.855 154.122 258.071 154.892 255.887 154.892V157.492ZM263.219 154.338C265.202 152.226 266.147 149.498 266.147 146.28H263.547C263.547 148.961 262.775 151.012 261.323 152.558L263.219 154.338ZM266.147 146.28C266.147 143.094 265.199 140.387 263.219 138.278L261.323 140.058C262.778 141.608 263.547 143.642 263.547 146.28H266.147ZM263.218 138.278C261.225 136.157 258.757 135.068 255.887 135.068V137.668C258.02 137.668 259.808 138.446 261.324 140.058L263.218 138.278ZM255.887 135.068C253.017 135.068 250.549 136.157 248.556 138.278L250.45 140.058C251.966 138.446 253.754 137.668 255.887 137.668V135.068ZM248.555 138.278C246.576 140.387 245.627 143.094 245.627 146.28H248.227C248.227 143.642 248.996 141.608 250.451 140.058L248.555 138.278ZM277.087 135.808L276.155 134.901L276.149 134.908L277.087 135.808ZM297.303 135.808L296.365 136.708L296.371 136.715L297.303 135.808ZM297.303 156.752L296.377 155.839L296.371 155.846L296.365 155.852L297.303 156.752ZM277.087 156.752L276.149 157.652L276.155 157.659L277.087 156.752ZM280.839 153.448L279.891 154.338L280.839 153.448ZM293.607 139.168L294.555 138.278L294.554 138.278L293.607 139.168ZM280.839 139.168L279.892 138.278L279.891 138.278L280.839 139.168ZM274.411 146.28C274.411 142.36 275.631 139.203 278.025 136.708L276.149 134.908C273.241 137.938 271.811 141.763 271.811 146.28H274.411ZM278.019 136.715C280.447 134.219 283.483 132.964 287.223 132.964V130.364C282.824 130.364 279.103 131.872 276.155 134.901L278.019 136.715ZM287.223 132.964C290.963 132.964 293.976 134.218 296.365 136.708L298.241 134.908C295.329 131.872 291.622 130.364 287.223 130.364V132.964ZM296.371 136.715C298.8 139.211 300.035 142.365 300.035 146.28H302.635C302.635 141.758 301.182 137.931 298.235 134.901L296.371 136.715ZM300.035 146.28C300.035 150.236 298.798 153.385 296.377 155.839L298.229 157.665C301.184 154.668 302.635 150.836 302.635 146.28H300.035ZM296.365 155.852C293.976 158.342 290.963 159.596 287.223 159.596V162.196C291.622 162.196 295.328 160.688 298.241 157.652L296.365 155.852ZM287.223 159.596C283.483 159.596 280.447 158.341 278.019 155.845L276.155 157.659C279.103 160.688 282.824 162.196 287.223 162.196V159.596ZM278.025 155.852C275.631 153.357 274.411 150.2 274.411 146.28H271.811C271.811 150.797 273.241 154.622 276.149 157.652L278.025 155.852ZM276.963 146.28C276.963 149.498 277.909 152.226 279.891 154.338L281.787 152.558C280.335 151.012 279.563 148.961 279.563 146.28H276.963ZM279.891 154.338C281.858 156.432 284.33 157.492 287.223 157.492V154.892C285.039 154.892 283.255 154.122 281.787 152.558L279.891 154.338ZM287.223 157.492C290.116 157.492 292.588 156.432 294.555 154.338L292.659 152.558C291.191 154.122 289.407 154.892 287.223 154.892V157.492ZM294.555 154.338C296.537 152.226 297.483 149.498 297.483 146.28H294.883C294.883 148.961 294.111 151.012 292.659 152.558L294.555 154.338ZM297.483 146.28C297.483 143.094 296.534 140.387 294.555 138.278L292.659 140.058C294.114 141.608 294.883 143.642 294.883 146.28H297.483ZM294.554 138.278C292.561 136.157 290.093 135.068 287.223 135.068V137.668C289.356 137.668 291.144 138.446 292.66 140.058L294.554 138.278ZM287.223 135.068C284.353 135.068 281.885 136.157 279.892 138.278L281.786 140.058C283.302 138.446 285.09 137.668 287.223 137.668V135.068ZM279.891 138.278C277.911 140.387 276.963 143.094 276.963 146.28H279.563C279.563 143.642 280.332 141.608 281.787 140.058L279.891 138.278ZM305.468 132.56V131.26H304.168V132.56H305.468ZM310.396 132.56H311.696V131.26H310.396V132.56ZM310.396 136.368H309.096V137.668H310.396V136.368ZM310.62 136.368V137.668H311.367L311.743 137.023L310.62 136.368ZM314.204 133.008L313.581 131.867L313.57 131.873L314.204 133.008ZM327.028 134.576L326.073 135.458L326.082 135.467L326.091 135.477L327.028 134.576ZM329.772 160V161.3H331.072V160H329.772ZM324.62 160H323.32V161.3H324.62V160ZM324.62 143.088H325.92V143.072L325.92 143.056L324.62 143.088ZM312.692 138.888L313.687 139.725L313.692 139.719L313.696 139.714L312.692 138.888ZM310.62 160V161.3H311.92V160H310.62ZM305.468 160H304.168V161.3H305.468V160ZM305.468 133.86H310.396V131.26H305.468V133.86ZM309.096 132.56V136.368H311.696V132.56H309.096ZM310.396 137.668H310.62V135.068H310.396V137.668ZM311.743 137.023C312.39 135.914 313.398 134.947 314.838 134.143L313.57 131.873C311.799 132.861 310.418 134.134 309.497 135.713L311.743 137.023ZM314.827 134.149C316.291 133.35 317.777 132.964 319.3 132.964V130.364C317.313 130.364 315.402 130.874 313.582 131.867L314.827 134.149ZM319.3 132.964C322.402 132.964 324.59 133.851 326.073 135.458L327.983 133.694C325.882 131.418 322.918 130.364 319.3 130.364V132.964ZM326.091 135.477C327.617 137.065 328.472 139.423 328.472 142.752H331.072C331.072 138.988 330.098 135.895 327.965 133.675L326.091 135.477ZM328.472 142.752V160H331.072V142.752H328.472ZM329.772 158.7H324.62V161.3H329.772V158.7ZM325.92 160V143.088H323.32V160H325.92ZM325.92 143.056C325.859 140.618 325.208 138.563 323.757 137.125C322.303 135.683 320.255 135.068 317.844 135.068V137.668C319.838 137.668 321.122 138.173 321.927 138.971C322.735 139.773 323.269 141.078 323.32 143.12L325.92 143.056ZM317.844 135.068C315.376 135.068 313.299 136.102 311.688 138.062L313.696 139.714C314.847 138.314 316.205 137.668 317.844 137.668V135.068ZM311.697 138.051C310.103 139.947 309.32 142.229 309.32 144.824H311.92C311.92 142.79 312.519 141.114 313.687 139.725L311.697 138.051ZM309.32 144.824V160H311.92V144.824H309.32ZM310.62 158.7H305.468V161.3H310.62V158.7ZM306.768 160V132.56H304.168V160H306.768Z" fill="#1F1F1F"/>
<path d="M141.621 91.8735L147.393 62.1247C147.8 60.029 149.635 58.5156 151.77 58.5156H174.511C176.646 58.5156 178.481 60.029 178.888 62.1247L184.66 91.8735C185.06 93.9372 183.479 95.8541 181.377 95.8541H144.904C142.801 95.8541 141.221 93.9372 141.621 91.8735Z" fill="#82C44D"/>
<path d="M172.614 51.2708C172.614 53.1175 171.117 54.6146 169.271 54.6146C167.424 54.6146 165.927 53.1175 165.927 51.2708C165.927 49.4241 167.424 47.9271 169.271 47.9271C171.117 47.9271 172.614 49.4241 172.614 51.2708Z" fill="#82C44D"/>
<path d="M143.386 25.7438L142.887 25.7731L143.386 25.7438ZM151.036 28.6231L150.62 28.3465V28.3465L151.036 28.6231ZM141.473 33.8965L141.898 34.1608L141.473 33.8965ZM145.777 45.8936L145.499 46.3092L145.777 45.8936ZM153.905 40.6148L154.362 40.4124L153.905 40.6148ZM149.602 35.5127L149.309 35.9185L149.602 35.5127ZM147.893 33.9196C147.641 33.8071 147.345 33.9204 147.233 34.1726C147.12 34.4247 147.233 34.7204 147.485 34.8329L147.893 33.9196ZM147.131 47.9737C147.395 48.0533 147.674 47.9035 147.754 47.6391C147.833 47.3746 147.683 47.0957 147.419 47.0161L147.131 47.9737ZM140.103 47.4949L140.361 47.9232L140.103 47.4949ZM151.1 50.3742L151.286 49.9102L151.1 50.3742ZM147.275 49.106L147.414 48.6258L147.275 49.106ZM145.006 47.9697C144.738 47.9025 144.466 48.0652 144.399 48.333C144.332 48.6008 144.495 48.8724 144.762 48.9397L145.006 47.9697ZM147.211 63.175L146.726 63.0542L147.211 63.175ZM137.648 59.8158L137.211 59.5737L137.648 59.8158ZM183.071 24.3041L182.873 24.7635L183.071 24.3041ZM169.683 20.9449L170.1 21.2216V21.2216L169.683 20.9449ZM175.421 35.3416L175.597 34.8736L175.421 35.3416ZM178.289 36.7727L178.022 37.1953H178.022L178.289 36.7727ZM180.767 39.4924C180.939 39.7083 181.254 39.7438 181.47 39.5717C181.686 39.3996 181.721 39.085 181.549 38.8691L180.767 39.4924ZM199.805 59.3361L199.47 59.7071C199.479 59.715 199.488 59.7225 199.497 59.7297L199.805 59.3361ZM187.139 88.7691C186.962 88.557 186.646 88.5284 186.434 88.7053C186.222 88.8821 186.194 89.1974 186.371 89.4095L187.139 88.7691ZM187.473 92.7847L187.964 92.6893L187.473 92.7847ZM149.102 20.6814C149.102 20.9576 149.325 21.1814 149.602 21.1814C149.878 21.1814 150.102 20.9576 150.102 20.6814H149.102ZM150.102 30.0628C150.102 29.7867 149.878 29.5628 149.602 29.5628C149.325 29.5628 149.102 29.7867 149.102 30.0628H150.102ZM149.102 35.7386C149.102 36.0148 149.325 36.2386 149.602 36.2386C149.878 36.2386 150.102 36.0148 150.102 35.7386H149.102ZM138.505 92.7847L138.014 92.6893L138.505 92.7847ZM143.961 67.3565C144.013 67.0854 143.836 66.823 143.565 66.7702C143.294 66.7175 143.032 66.8945 142.979 67.1656L143.961 67.3565ZM146.525 48.9381C146.472 49.2092 146.649 49.4717 146.92 49.5244C147.191 49.5771 147.454 49.4001 147.506 49.1291L146.525 48.9381ZM147.929 46.9544C147.982 46.6834 147.805 46.4209 147.534 46.3682C147.263 46.3154 147 46.4924 146.948 46.7635L147.929 46.9544ZM202.393 104.894L202.656 105.319L202.393 104.894ZM199.542 104.423L199.158 104.743L199.542 104.423ZM145.098 58.4717L144.913 58.9361L145.098 58.4717ZM144.565 58.2314L144.329 58.6724L144.565 58.2314ZM218.578 74.0419L218.27 74.4355L218.578 74.0419ZM219.425 75.7535L219.925 75.7494L219.425 75.7535ZM148.192 32.0012L148.31 31.5154L148.192 32.0012ZM149.933 21.0208L150.369 20.7755L149.933 21.0208ZM147.311 17.754L147.532 18.2028L147.311 17.754ZM171.5 2.72919C199.54 2.72919 222.271 25.4601 222.271 53.5H223.271C223.271 24.9078 200.092 1.72919 171.5 1.72919V2.72919ZM138.791 92.3321C127.745 83.018 120.729 69.0786 120.729 53.5H119.729C119.729 69.3857 126.885 83.6007 138.147 93.0966L138.791 92.3321ZM171.5 104.271C163.588 104.271 156.1 102.461 149.426 99.2341L148.991 100.134C155.798 103.426 163.434 105.271 171.5 105.271V104.271ZM194.814 98.6135C187.833 102.229 179.906 104.271 171.5 104.271V105.271C180.07 105.271 188.154 103.188 195.274 99.5015L194.814 98.6135ZM222.271 53.5C222.271 60.6979 220.773 67.5447 218.073 73.7469L218.99 74.1461C221.744 67.8203 223.271 60.8378 223.271 53.5H222.271ZM120.729 53.5C120.729 33.2139 132.627 15.7057 149.827 7.57422L149.4 6.67016C131.863 14.9607 119.729 32.8129 119.729 53.5H120.729ZM147.091 17.3053C145.986 17.848 144.858 18.7456 144.043 20.1311C143.228 21.5183 142.746 23.3641 142.887 25.7731L143.885 25.7145C143.754 23.4732 144.205 21.83 144.905 20.6378C145.607 19.444 146.577 18.6719 147.532 18.2028L147.091 17.3053ZM142.887 25.7731C143.009 27.8565 143.439 29.3375 144.099 30.3194C144.775 31.3243 145.682 31.786 146.655 31.8222C147.599 31.8573 148.552 31.4906 149.374 30.9539C150.201 30.4143 150.937 29.6762 151.453 28.8998L150.62 28.3465C150.179 29.0098 149.54 29.6513 148.828 30.1165C148.111 30.5846 147.361 30.8477 146.692 30.8229C146.051 30.799 145.433 30.511 144.929 29.7612C144.409 28.9885 144.002 27.7101 143.885 25.7145L142.887 25.7731ZM151.453 28.8998C152.259 27.6849 152.227 26.1045 151.906 24.6653C151.581 23.2085 150.936 21.7829 150.369 20.7755L149.497 21.266C150.033 22.2178 150.632 23.5502 150.93 24.8831C151.231 26.2336 151.199 27.4748 150.62 28.3465L151.453 28.8998ZM150.102 19.8179V19.5005H149.102V19.8179H150.102ZM148.31 31.5154C147.197 31.2445 145.823 31.0927 144.509 31.3429C143.183 31.5953 141.902 32.2625 141.049 33.6322L141.898 34.1608C142.572 33.0787 143.579 32.5377 144.696 32.3252C145.824 32.1105 147.045 32.2369 148.074 32.487L148.31 31.5154ZM141.049 33.6322C139.789 35.6557 139.391 37.8471 140.101 40.0484C140.805 42.2325 142.575 44.353 145.499 46.3092L146.055 45.4781C143.241 43.5951 141.664 41.6366 141.053 39.7416C140.448 37.864 140.767 35.9763 141.898 34.1608L141.049 33.6322ZM145.499 46.3092C148.503 48.3195 151.26 48.132 153.024 46.7019C154.764 45.292 155.404 42.7665 154.362 40.4124L153.448 40.8173C154.318 42.7821 153.763 44.8156 152.395 45.9251C151.051 47.0145 148.788 47.3068 146.055 45.4781L145.499 46.3092ZM154.362 40.4124C153.295 38.0025 151.438 36.2192 149.894 35.107L149.309 35.9185C150.767 36.9678 152.476 38.6237 153.448 40.8173L154.362 40.4124ZM149.894 35.107C149.118 34.5485 148.407 34.1491 147.893 33.9196L147.485 34.8329C147.929 35.0306 148.581 35.3937 149.309 35.9185L149.894 35.107ZM149.102 33.9408V35.5127H150.102V33.9408H149.102ZM147.419 47.0161C146.591 46.7669 145.238 46.4707 143.839 46.384C142.462 46.2986 140.937 46.4088 139.845 47.0666L140.361 47.9232C141.181 47.4293 142.445 47.2995 143.777 47.3821C145.088 47.4633 146.365 47.743 147.131 47.9737L147.419 47.0161ZM139.845 47.0666C138.473 47.893 137.696 49.5089 137.631 51.1949C137.566 52.8938 138.218 54.7281 139.782 56.0366L140.424 55.2695C139.119 54.1786 138.576 52.6536 138.63 51.2332C138.685 49.7999 139.343 48.5364 140.361 47.9232L139.845 47.0666ZM139.782 56.0366C141.278 57.288 143.261 58.2812 145.304 58.7783C147.343 59.2743 149.493 59.2879 151.297 58.5118L150.902 57.5932C149.36 58.2567 147.446 58.2703 145.54 57.8066C143.639 57.3439 141.796 56.4175 140.424 55.2695L139.782 56.0366ZM151.297 58.5118C153.234 57.6788 153.879 55.7454 153.75 53.9966C153.685 53.1169 153.426 52.249 153.013 51.528C152.602 50.8107 152.018 50.2043 151.286 49.9102L150.913 50.8383C151.376 51.0241 151.809 51.4375 152.145 52.0249C152.479 52.6085 152.698 53.3303 152.753 54.0702C152.863 55.5607 152.313 56.9865 150.902 57.5932L151.297 58.5118ZM151.286 49.9102C150.173 49.4633 148.702 48.9995 147.414 48.6258L147.135 49.5862C148.415 49.9575 149.847 50.4103 150.913 50.8383L151.286 49.9102ZM147.414 48.6258C146.439 48.3429 145.56 48.1089 145.006 47.9697L144.762 48.9397C145.305 49.0758 146.172 49.3066 147.135 49.5862L147.414 48.6258ZM144.913 58.9361C145.405 59.1327 146.015 59.5398 146.422 60.196C146.819 60.8373 147.048 61.7592 146.726 63.0542L147.696 63.2959C148.079 61.7605 147.822 60.5583 147.272 59.6695C146.731 58.7954 145.932 58.2661 145.284 58.0074L144.913 58.9361ZM146.726 63.0542C146.262 64.915 145.595 65.8442 144.861 66.2859C144.126 66.7289 143.203 66.7554 142.05 66.5239L141.853 67.5044C143.091 67.7528 144.32 67.7793 145.377 67.1425C146.437 66.5045 147.203 65.2742 147.696 63.2959L146.726 63.0542ZM142.05 66.5239C140.927 66.2985 139.363 65.6182 138.379 64.5208C137.895 63.9802 137.562 63.3518 137.472 62.6333C137.383 61.9168 137.53 61.0627 138.086 60.0579L137.211 59.5737C136.572 60.7284 136.36 61.7938 136.48 62.7569C136.6 63.7181 137.044 64.5293 137.635 65.1884C138.802 66.4906 140.585 67.2499 141.853 67.5044L142.05 66.5239ZM138.086 60.0579C138.907 58.5739 140.055 58.0379 141.188 57.9503C142.354 57.8603 143.533 58.2468 144.329 58.6724L144.801 57.7904C143.895 57.3063 142.524 56.8442 141.111 56.9533C139.666 57.065 138.206 57.776 137.211 59.5737L138.086 60.0579ZM195.008 38.0293C192.606 32.2447 188.812 26.2294 183.268 23.8448L182.873 24.7635C188.04 26.9858 191.704 32.6799 194.084 38.4127L195.008 38.0293ZM169.267 20.6683C168.47 21.8679 168.223 23.3385 168.333 24.8503C168.443 26.3631 168.911 27.9513 169.587 29.4307C170.263 30.9114 171.155 32.3024 172.13 33.4207C173.099 34.5314 174.18 35.4087 175.245 35.8096L175.597 34.8736C174.749 34.5547 173.798 33.8123 172.884 32.7636C171.976 31.7224 171.135 30.4139 170.497 29.0153C169.857 27.6154 169.429 26.1443 169.33 24.7778C169.231 23.4103 169.462 22.1814 170.1 21.2216L169.267 20.6683ZM178.022 37.1953C179.451 38.0994 180.397 39.028 180.767 39.4924L181.549 38.8691C181.099 38.3046 180.065 37.3044 178.557 36.3502L178.022 37.1953ZM194.084 38.4127C194.658 39.7947 195.039 41.5693 195.344 43.5402C195.649 45.5133 195.87 47.6247 196.142 49.7069C196.411 51.7734 196.729 53.7968 197.225 55.527C197.719 57.2466 198.409 58.7484 199.47 59.7071L200.14 58.9651C199.289 58.1962 198.664 56.9147 198.187 55.251C197.712 53.598 197.402 51.6383 197.133 49.5777C196.867 47.5329 196.64 45.3733 196.332 43.3873C196.025 41.3991 195.629 39.5266 195.008 38.0293L194.084 38.4127ZM199.497 59.7297L218.27 74.4355L218.886 73.6483L200.114 58.9425L199.497 59.7297ZM218.925 75.7576C218.985 83.1101 217.907 88.3258 215.287 92.6682C212.662 97.0183 208.455 100.552 202.13 104.469L202.656 105.319C209.026 101.374 213.395 97.739 216.143 93.1848C218.896 88.623 219.986 83.1992 219.925 75.7494L218.925 75.7576ZM199.926 104.103L187.139 88.7691L186.371 89.4095L199.158 104.743L199.926 104.103ZM175.245 35.8096C175.565 35.93 175.873 36.0588 176.17 36.1938L176.584 35.2835C176.268 35.1396 175.938 35.0022 175.597 34.8736L175.245 35.8096ZM176.17 36.1938C176.853 36.5043 177.472 36.8472 178.022 37.1953L178.557 36.3502C177.971 35.9796 177.311 35.6144 176.584 35.2835L176.17 36.1938ZM187.964 92.6893L176.868 35.6432L175.886 35.8341L186.983 92.8802L187.964 92.6893ZM183.268 23.8448C180.664 22.7246 178.521 21.321 176.623 20.2463L176.131 21.1165C177.96 22.1526 180.202 23.6145 182.873 24.7635L183.268 23.8448ZM176.623 20.2463C175.198 19.4394 173.864 18.7894 172.634 18.7239C172 18.6902 171.39 18.8102 170.813 19.1362C170.242 19.4591 169.732 19.968 169.267 20.6683L170.1 21.2216C170.504 20.6133 170.907 20.2321 171.305 20.0068C171.699 19.7844 172.116 19.6978 172.581 19.7225C173.546 19.7738 174.69 20.3005 176.131 21.1165L176.623 20.2463ZM149.102 30.0628V35.7386H150.102V30.0628H149.102ZM138.996 92.8802L143.961 67.3565L142.979 67.1656L138.014 92.6893L138.996 92.8802ZM147.506 49.1291L147.929 46.9544L146.948 46.7635L146.525 48.9381L147.506 49.1291ZM150.102 5.10853C150.102 3.79272 151.164 2.72919 152.47 2.72919V1.72919C150.608 1.72919 149.102 3.24391 149.102 5.10853H150.102ZM176.877 5.10853C176.877 3.24391 175.37 1.72919 173.508 1.72919V2.72919C174.815 2.72919 175.877 3.79272 175.877 5.10853H176.877ZM144.136 99.1469C140.843 99.1469 138.364 96.1298 138.996 92.8802L138.014 92.6893C137.263 96.5518 140.21 100.147 144.136 100.147V99.1469ZM181.842 100.147C185.769 100.147 188.716 96.5518 187.964 92.6893L186.983 92.8802C187.615 96.1298 185.135 99.1469 181.842 99.1469V100.147ZM181.842 99.1469H144.136V100.147H181.842V99.1469ZM173.508 1.72919H152.47V2.72919H173.508V1.72919ZM202.13 104.469C201.412 104.913 200.471 104.757 199.926 104.103L199.158 104.743C200.017 105.774 201.509 106.03 202.656 105.319L202.13 104.469ZM145.284 58.0074C145.107 57.9367 144.948 57.8692 144.801 57.7904L144.329 58.6724C144.527 58.7779 144.727 58.8618 144.913 58.9361L145.284 58.0074ZM218.27 74.4355C218.677 74.755 218.921 75.2443 218.925 75.7576L219.925 75.7494C219.918 74.9268 219.53 74.1526 218.886 73.6483L218.27 74.4355ZM148.074 32.487C148.681 32.6347 149.102 33.226 149.102 33.9408H150.102C150.102 32.8579 149.45 31.7927 148.31 31.5154L148.074 32.487ZM150.369 20.7755C150.197 20.4706 150.102 20.1424 150.102 19.8179H149.102C149.102 20.3387 149.254 20.8342 149.497 21.266L150.369 20.7755ZM147.532 18.2028C147.923 18.0105 148.289 18.0827 148.577 18.3166C148.88 18.5619 149.102 18.9946 149.102 19.5005H150.102C150.102 18.7125 149.759 17.9867 149.207 17.5395C148.641 17.0811 147.861 16.927 147.091 17.3053L147.532 18.2028ZM150.102 20.6814V9.47398H149.102V20.6814H150.102ZM150.102 9.47398V5.10853H149.102V9.47398H150.102ZM176.877 20.6814V9.47398H175.877V20.6814H176.877ZM176.877 9.47398V5.10853H175.877V9.47398H176.877ZM149.602 9.97398H176.377V8.97398H149.602V9.97398Z" fill="#1F1F1F"/>
<path d="M134.719 21.1771C134.719 23.0238 133.222 24.5208 131.375 24.5208C129.528 24.5208 128.031 23.0238 128.031 21.1771C128.031 19.3304 129.528 17.8333 131.375 17.8333C133.222 17.8333 134.719 19.3304 134.719 21.1771Z" fill="#82C44D"/>
<path d="M208.281 21.1771C208.281 23.0238 209.778 24.5208 211.625 24.5208C213.472 24.5208 214.969 23.0238 214.969 21.1771C214.969 19.3304 213.472 17.8333 211.625 17.8333C209.778 17.8333 208.281 19.3304 208.281 21.1771Z" fill="#82C44D"/>
<path d="M124.688 41.2396C124.688 43.0863 123.19 44.5833 121.344 44.5833C119.497 44.5833 118 43.0863 118 41.2396C118 39.3929 119.497 37.8958 121.344 37.8958C123.19 37.8958 124.688 39.3929 124.688 41.2396Z" fill="#82C44D"/>
<path d="M218.312 41.2396C218.312 43.0863 219.81 44.5833 221.656 44.5833C223.503 44.5833 225 43.0863 225 41.2396C225 39.3929 223.503 37.8958 221.656 37.8958C219.81 37.8958 218.312 39.3929 218.312 41.2396Z" fill="#82C44D"/>
<path d="M124.688 65.7604C124.688 67.6071 123.19 69.1041 121.344 69.1041C119.497 69.1041 118 67.6071 118 65.7604C118 63.9137 119.497 62.4166 121.344 62.4166C123.19 62.4166 124.688 63.9137 124.688 65.7604Z" fill="#82C44D"/>
<path d="M218.312 65.7604C218.312 67.6071 219.81 69.1041 221.656 69.1041C223.503 69.1041 225 67.6071 225 65.7604C225 63.9137 223.503 62.4166 221.656 62.4166C219.81 62.4166 218.312 63.9137 218.312 65.7604Z" fill="#82C44D"/>
<path d="M134.719 85.8229C134.719 87.6696 133.222 89.1666 131.375 89.1666C129.528 89.1666 128.031 87.6696 128.031 85.8229C128.031 83.9762 129.528 82.4791 131.375 82.4791C133.222 82.4791 134.719 83.9762 134.719 85.8229Z" fill="#82C44D"/>
</svg>
