<svg width="525" height="336" viewBox="0 0 525 336" fill="none" xmlns="http://www.w3.org/2000/svg">
<path d="M181.505 304.123L179.758 305.872L175.469 310.164L171.18 314.456L166.892 318.748L162.603 323.04L158.315 327.332L154.026 331.624L149.737 335.916L145.449 340.209L137.068 348.596L136.862 348.802L132.574 353.094L128.285 357.386L123.996 361.678L119.708 365.97L117.764 367.915C118.035 367.915 118.306 367.906 118.577 367.897L120.726 365.746L125.015 361.454L129.303 357.162L133.592 352.87L137.881 348.578L142.169 344.286L146.458 339.993L150.746 335.701L155.035 331.409L159.324 327.117L163.612 322.825L167.901 318.533L172.19 314.241L176.478 309.949L180.767 305.657L181.468 304.955C181.468 304.684 181.486 304.413 181.486 304.142L181.505 304.123Z" fill="#9A8CF3"/>
<path d="M181.253 308.668L179.758 310.164L175.469 314.456L171.18 318.748L166.892 323.04L158.511 331.428L158.305 331.634L154.017 335.926L149.728 340.218L145.439 344.51L141.151 348.802L136.862 353.094L132.574 357.386L128.285 361.678L123.996 365.97L122.305 367.663C122.595 367.635 122.884 367.616 123.174 367.579L129.098 361.65L129.303 361.445L133.592 357.153L137.881 352.86L142.169 348.568L146.458 344.276L150.746 339.984L155.035 335.692L159.324 331.4L163.612 327.108L167.901 322.816L172.19 318.524L176.478 314.232L180.767 309.94L181.159 309.547C181.187 309.257 181.215 308.967 181.243 308.677L181.253 308.668Z" fill="#9A8CF3"/>
<path d="M146.57 360.556C147.149 360.248 147.729 359.939 148.308 359.612L150.728 357.19L155.016 352.898L159.305 348.606L163.594 344.314L167.882 340.022L172.171 335.729L173.143 334.757C173.47 334.187 173.778 333.607 174.086 333.018L171.152 335.954L166.864 340.246L158.483 348.634L158.277 348.84L153.989 353.132L149.7 357.424L146.561 360.566L146.57 360.556Z" fill="#9A8CF3"/>
<path d="M138.852 363.988C139.282 363.829 139.703 363.67 140.132 363.502L142.151 361.482L146.439 357.19L150.728 352.898L155.016 348.606L159.305 344.314L163.594 340.022L167.882 335.729L172.171 331.437L176.459 327.145L177.029 326.575C177.198 326.154 177.356 325.724 177.515 325.294L175.441 327.37L171.152 331.662L166.864 335.954L162.575 340.246L158.287 344.538L153.998 348.83L149.709 353.122L145.421 357.414L138.852 363.988Z" fill="#9A8CF3"/>
<path d="M137.853 361.482L142.141 357.19L146.43 352.898L150.718 348.606L155.007 344.314L159.296 340.022L163.584 335.729L167.873 331.437L172.162 327.145L176.45 322.853L179.15 320.151C179.253 319.786 179.347 319.431 179.44 319.066L175.422 323.087L171.134 327.379L166.845 331.671L162.557 335.963L158.268 340.255L153.979 344.547L149.691 348.839L145.402 353.132L141.113 357.424L136.825 361.716L132.611 365.933C132.975 365.84 133.33 365.737 133.695 365.643L137.843 361.491L137.853 361.482Z" fill="#9A8CF3"/>
<path d="M133.564 361.482L137.853 357.19L142.141 352.898L150.522 344.51L150.728 344.304L155.016 340.012L159.305 335.72L167.892 327.127L172.18 322.835L176.469 318.542L180.44 314.568C180.496 314.25 180.552 313.932 180.608 313.614L177.599 316.625L175.45 318.776L171.162 323.068L166.873 327.36L162.585 331.652L158.296 335.945L154.007 340.237L149.719 344.529L145.43 348.821L141.141 353.113L136.853 357.405L132.564 361.697L128.276 365.989L127.21 367.055C127.528 366.999 127.846 366.952 128.164 366.887L129.294 365.755L133.583 361.463L133.564 361.482Z" fill="#9A8CF3"/>
<path d="M75.5416 252.001C71.8976 254.937 68.5807 258.257 65.6469 261.904L69.1694 258.378L73.458 254.086L75.5416 252.001Z" fill="#9A8CF3"/>
<path d="M180.645 292.089L179.758 292.977L175.469 297.269L171.18 301.561L166.892 305.853L162.603 310.145L158.315 314.437L154.026 318.729L149.737 323.022L145.449 327.314L141.16 331.606L136.872 335.898L132.583 340.19L128.294 344.482L124.006 348.774L119.717 353.066L115.428 357.358L111.14 361.65L106.851 365.942L105.767 367.027C105.992 367.065 106.216 367.102 106.449 367.139L112.168 361.417L116.456 357.124L120.745 352.832L129.126 344.445L129.331 344.239L133.62 339.947L137.909 335.655L142.197 331.363L146.486 327.07L150.774 322.778L155.063 318.486L159.352 314.194L163.64 309.902L167.929 305.61L172.218 301.318L176.506 297.026L180.776 292.752C180.739 292.528 180.701 292.304 180.664 292.07L180.645 292.089Z" fill="#9A8CF3"/>
<path d="M181.159 295.876L179.758 297.278L175.469 301.57L171.18 305.862L166.892 310.155L160.454 316.597L158.305 318.748L154.017 323.04L149.728 327.332L145.439 331.624L141.151 335.916L136.862 340.209L132.574 344.501L128.285 348.793L123.996 353.085L119.708 357.377L115.419 361.669L111.131 365.961L109.533 367.56C109.776 367.588 110.019 367.607 110.252 367.635L112.149 365.737L116.438 361.445L120.726 357.152L125.015 352.86L129.303 348.568L133.592 344.276L137.881 339.984L142.169 335.692L150.756 327.099L155.044 322.806L159.333 318.514L166.275 311.567L167.92 309.93L172.208 305.638L176.497 301.346L180.785 297.054L181.234 296.605C181.215 296.362 181.187 296.119 181.159 295.885V295.876Z" fill="#9A8CF3"/>
<path d="M181.458 299.878L179.767 301.57L175.478 305.862L171.19 310.155L166.901 314.447L162.613 318.739L158.324 323.031L154.035 327.323L149.747 331.615L145.458 335.907L141.169 340.199L136.881 344.491L132.592 348.783L128.304 353.076L124.015 357.368L115.428 365.961L113.541 367.85C113.793 367.859 114.046 367.869 114.307 367.878L116.456 365.727L120.745 361.435L125.033 357.143L129.322 352.851L133.611 348.559L137.899 344.267L142.188 339.975L146.477 335.683L150.765 331.391L155.054 327.099L159.342 322.806L163.631 318.514L167.92 314.222L172.208 309.93L176.497 305.638L180.785 301.346L181.486 300.645C181.486 300.392 181.468 300.13 181.458 299.878Z" fill="#9A8CF3"/>
<path d="M175.628 275.64L175.469 275.799L171.18 280.091L166.892 284.383L162.603 288.675L158.315 292.968L154.026 297.26L149.737 301.552L145.449 305.844L141.16 310.136L136.872 314.428L132.583 318.72L128.294 323.012L124.006 327.304L119.717 331.596L115.428 335.888L111.14 340.181L106.851 344.473L102.563 348.765L98.274 353.057L93.9854 357.349L89.6968 361.641L89.3511 361.987C89.5286 362.071 89.7155 362.155 89.893 362.239L90.5097 361.622L90.7152 361.417L95.0039 357.124L99.2925 352.832L103.581 348.54L107.87 344.248L112.158 339.956L116.447 335.664L120.736 331.372L125.024 327.08L129.313 322.788L133.601 318.496L137.89 314.204L142.179 309.911L146.467 305.619L150.756 301.327L155.044 297.035L159.333 292.743L163.622 288.451L167.91 284.159L172.199 279.867L175.871 276.192C175.787 276.014 175.703 275.827 175.628 275.65V275.64Z" fill="#9A8CF3"/>
<path d="M177.132 279.212C177.057 279.025 176.983 278.829 176.908 278.642L175.469 280.082L171.18 284.374L166.892 288.666L162.603 292.958L158.315 297.25L154.026 301.542L149.737 305.834L145.449 310.127L139.011 316.569L136.862 318.72L132.574 323.012L128.285 327.304L123.996 331.596L119.708 335.888L115.419 340.181L111.13 344.473L106.842 348.765L102.553 353.057L98.2646 357.349L93.976 361.641L92.3409 363.277C92.5278 363.352 92.724 363.427 92.9109 363.502L95.0038 361.407L99.2924 357.115L103.581 352.823L112.168 344.229L116.456 339.937L120.745 335.645L129.331 327.052L133.62 322.76L137.909 318.468L142.197 314.175L146.486 309.883L150.774 305.591L155.063 301.299L159.352 297.007L163.64 292.715L167.929 288.423L172.218 284.131L176.506 279.839L177.151 279.194L177.132 279.212Z" fill="#9A8CF3"/>
<path d="M171.05 267.327L166.882 271.498L162.594 275.79L158.305 280.082L154.017 284.374L149.728 288.666L145.439 292.958L141.151 297.25L136.862 301.542L132.574 305.834L128.285 310.126L123.996 314.419L119.708 318.711L115.419 323.003L111.131 327.295L106.842 331.587L102.553 335.879L98.2647 340.171L93.976 344.463L89.6874 348.755L85.3988 353.047L81.1102 357.34L81.0448 357.405C81.2036 357.508 81.3625 357.611 81.5213 357.714L82.1286 357.106L86.4172 352.814L90.7059 348.522L94.9945 344.229L99.2831 339.937L103.572 335.645L112.158 327.052L116.447 322.76L120.736 318.468L127.678 311.52L129.313 309.883L133.601 305.591L137.89 301.299L142.179 297.007L146.467 292.715L150.756 288.423L155.044 284.131L159.333 279.839L163.622 275.547L167.91 271.255L171.367 267.795C171.265 267.636 171.162 267.477 171.059 267.318L171.05 267.327Z" fill="#9A8CF3"/>
<path d="M172.984 270.488C172.89 270.319 172.787 270.151 172.694 269.983L171.18 271.498L166.892 275.79L162.603 280.082L158.315 284.374L154.026 288.666L149.737 292.958L145.449 297.25L141.16 301.542L136.872 305.834L132.583 310.126L128.294 314.419L124.006 318.711L119.717 323.003L115.428 327.295L111.14 331.587L106.851 335.879L102.563 340.171L98.274 344.463L93.9854 348.755L89.6968 353.047L85.4081 357.34L83.6983 359.051C83.8665 359.144 84.0347 359.247 84.2028 359.341L86.4266 357.115L90.7152 352.823L95.0038 348.531L99.2924 344.239L103.581 339.947L107.87 335.655L112.158 331.363L116.447 327.07L120.735 322.778L125.024 318.486L129.313 314.194L133.601 309.902L137.89 305.61L142.179 301.318L146.467 297.026L150.756 292.734L155.044 288.442L159.333 284.15L163.622 279.857L167.91 275.565L172.199 271.273L172.984 270.488Z" fill="#9A8CF3"/>
<path d="M165.883 260.407C165.761 260.267 165.64 260.127 165.518 259.977L162.594 262.904L158.305 267.196L154.017 271.488L149.728 275.78L145.439 280.073L141.151 284.365L136.862 288.657L132.574 292.949L128.285 297.241L123.996 301.533L119.708 305.825L115.419 310.117L111.13 314.409L106.842 318.701L102.553 322.993L98.2646 327.286L93.976 331.578L89.6874 335.87L85.3988 340.162L76.8122 348.755L73.6915 351.879C73.8317 352 73.9718 352.122 74.1213 352.243L77.8306 348.531L82.1193 344.239L86.4079 339.947L90.6965 335.655L94.9851 331.363L99.2737 327.07L103.562 322.778L107.851 318.486L112.14 314.194L116.428 309.902L120.717 305.61L125.005 301.318L129.294 297.026L133.583 292.734L137.871 288.442L142.16 284.15L146.448 279.857L150.737 275.565L155.026 271.273L159.314 266.981L163.603 262.689L165.873 260.417L165.883 260.407Z" fill="#9A8CF3"/>
<path d="M163.855 258.145C163.724 258.004 163.603 257.873 163.472 257.733L162.594 258.612L158.305 262.904L154.017 267.196L149.728 271.488L145.439 275.78L141.151 280.073L136.862 284.365L132.574 288.657L128.285 292.949L123.996 297.241L119.708 301.533L115.419 305.825L111.13 310.117L106.842 314.409L102.553 318.701L98.2646 322.993L93.976 327.286L89.6874 331.578L85.3988 335.87L81.1102 340.162L76.8216 344.454L72.5329 348.746L71.4678 349.812C71.5986 349.943 71.7388 350.064 71.8789 350.195L73.5607 348.512L77.8493 344.22L82.1379 339.928L86.4266 335.636L90.7152 331.344L95.0038 327.052L99.2924 322.76L103.581 318.468L111.85 310.192L112.168 309.874L116.456 305.582L120.745 301.29L125.033 296.998L129.322 292.706L133.611 288.414L137.899 284.121L142.188 279.829L146.477 275.537L150.765 271.245L155.054 266.953L159.342 262.661L163.631 258.369L163.874 258.126L163.855 258.145Z" fill="#9A8CF3"/>
<path d="M167.817 262.773C167.705 262.624 167.583 262.474 167.471 262.334L166.892 262.914L162.603 267.206L158.315 271.498L154.026 275.79L149.737 280.082L145.449 284.374L141.16 288.666L136.872 292.958L132.583 297.25L128.294 301.542L124.006 305.834L119.717 310.127L115.428 314.419L111.14 318.711L106.851 323.003L98.4702 331.391L98.2647 331.596L93.9761 335.888L89.6875 340.181L85.3988 344.473L81.1102 348.765L76.8216 353.057L76.0461 353.833C76.1956 353.954 76.3451 354.067 76.4946 354.179L77.8494 352.823L82.138 348.531L86.4266 344.239L90.7152 339.947L95.0038 335.655L99.2925 331.363L103.581 327.07L107.87 322.778L112.158 318.486L116.447 314.194L120.736 309.902L125.024 305.61L129.313 301.318L133.601 297.026L137.89 292.734L142.179 288.442L146.467 284.15L150.756 279.857L155.044 275.565L159.333 271.273L163.622 266.981L167.826 262.773H167.817Z" fill="#9A8CF3"/>
<path d="M161.725 255.975C161.594 255.844 161.463 255.713 161.323 255.582L158.296 258.612L154.007 262.904L149.719 267.196L145.43 271.488L141.141 275.78L136.853 280.073L132.564 284.365L128.276 288.657L123.987 292.949L119.698 297.241L115.41 301.533L111.121 305.825L106.833 310.117L100.395 316.56L98.246 318.711L93.9574 323.003L89.6688 327.295L85.3801 331.587L81.0915 335.879L76.8029 340.171L72.5143 344.463L69.3002 347.68C69.431 347.811 69.5618 347.951 69.6926 348.082L73.5327 344.239L77.8213 339.947L82.11 335.655L90.6965 327.061L94.9851 322.769L99.2738 318.477L103.562 314.185L107.851 309.893L112.14 305.601L116.428 301.309L120.717 297.016L125.005 292.724L129.294 288.432L133.583 284.14L137.871 279.848L142.16 275.556L146.449 271.264L150.737 266.972L155.026 262.68L159.314 258.388L161.716 255.984L161.725 255.975Z" fill="#9A8CF3"/>
<path d="M123.95 241.425L119.661 245.717L115.372 250.009L111.084 254.301L106.795 258.593L102.507 262.885L98.2179 267.178L93.9293 271.47L89.6407 275.762L85.3521 280.054L81.0635 284.346L76.7748 288.638L72.4862 292.93L68.1976 297.222L63.909 301.514L59.6204 305.806L55.3318 310.098L52.1644 313.268C52.2017 313.493 52.2391 313.727 52.2765 313.951L56.3502 309.874L60.6388 305.582L64.9274 301.29L69.216 296.998L73.5047 292.706L77.7933 288.414L82.0819 284.122L86.3705 279.829L90.6591 275.537L94.9477 271.245L99.2364 266.953L103.525 262.661L107.814 258.369L112.102 254.077L116.391 249.785L120.679 245.493L124.968 241.201L127.603 238.564C127.379 238.526 127.154 238.489 126.921 238.451L123.94 241.434L123.95 241.425Z" fill="#9A8CF3"/>
<path d="M119.661 241.425L115.372 245.717L111.084 250.009L106.795 254.301L102.507 258.593L98.2179 262.885L93.9293 267.178L89.6407 271.47L85.3521 275.762L81.0635 280.054L76.7748 284.346L72.4862 288.638L68.1976 292.93L63.909 297.222L59.6204 301.514L55.3318 305.806L51.6598 309.481C51.6879 309.715 51.7159 309.958 51.7439 310.192L52.0616 309.874L56.3502 305.582L60.6388 301.29L64.9274 296.998L69.216 292.706L73.5047 288.414L77.7933 284.121L82.0819 279.829L86.3705 275.537L90.6591 271.245L94.9477 266.953L99.2363 262.661L103.525 258.369L107.814 254.077L112.102 249.785L116.391 245.493L120.679 241.201L123.856 238.021C123.623 237.993 123.38 237.965 123.146 237.937L119.661 241.425Z" fill="#9A8CF3"/>
<path d="M115.363 241.425L111.074 245.717L106.786 250.009L102.497 254.301L98.2086 258.593L93.92 262.886L89.6314 267.178L85.3428 271.47L81.0541 275.762L76.7655 280.054L72.4769 284.346L68.1883 288.638L63.8997 292.93L59.6111 297.222L55.3225 301.514L51.3702 305.47C51.3796 305.722 51.3889 305.975 51.4076 306.227L52.0616 305.573L56.3502 301.281L60.6389 296.988L64.9275 292.696L69.2161 288.404L73.5047 284.112L77.7933 279.82L82.0819 275.528L86.3705 271.236L90.6591 266.944L94.9478 262.652L99.2364 258.36L103.525 254.068L107.814 249.775L112.102 245.483L116.391 241.191L119.904 237.675C119.652 237.666 119.399 237.657 119.147 237.638L115.372 241.416L115.363 241.425Z" fill="#9A8CF3"/>
<path d="M111.074 241.425L106.786 245.717L102.497 250.009L98.2086 254.301L93.92 258.593L89.6314 262.885L85.3428 267.178L81.0541 271.47L76.7655 275.762L72.4769 280.054L68.1883 284.346L63.8997 288.638L59.6111 292.93L55.3225 297.222L51.3235 301.224C51.3235 301.496 51.3235 301.757 51.3141 302.029L52.0523 301.29L56.3409 296.998L60.6295 292.706L64.9181 288.414L69.2067 284.121L73.4953 279.829L77.784 275.537L82.0726 271.245L86.3612 266.953L90.6498 262.661L94.9384 258.369L99.227 254.077L103.516 249.785L107.804 245.493L112.093 241.201L115.69 237.6C115.419 237.6 115.158 237.6 114.887 237.61L111.074 241.425Z" fill="#9A8CF3"/>
<path d="M102.488 241.425L98.1992 245.717L93.9106 250.009L89.622 254.301L85.3334 258.593L81.0448 262.885L76.7562 267.178L72.4675 271.47L68.1789 275.762L63.8903 280.054L59.6017 284.346L55.3131 288.638L52.2204 291.724C52.1644 292.042 52.1083 292.36 52.0616 292.678L56.3315 288.404L60.6201 284.112L64.9087 279.82L69.1974 275.528L73.486 271.236L77.7746 266.944L82.0632 262.652L86.3518 258.36L90.6404 254.068L94.929 249.775L99.2177 245.483L103.506 241.191L106.337 238.358C106.02 238.405 105.702 238.461 105.384 238.517L102.479 241.425H102.488Z" fill="#9A8CF3"/>
<path d="M103.506 365.783L107.795 361.491L112.084 357.199L116.372 352.907L120.661 348.615L124.949 344.323L129.238 340.031L133.527 335.739L137.815 331.447L142.104 327.155L146.392 322.863L150.681 318.57L154.97 314.278L159.258 309.986L163.547 305.694L167.836 301.402L172.124 297.11L176.413 292.818L180.01 289.218C179.963 289.003 179.917 288.788 179.87 288.563L179.683 288.75L175.394 293.042L171.106 297.334L166.817 301.626L162.528 305.919L158.24 310.211L153.951 314.503L149.663 318.795L145.374 323.087L136.993 331.475L136.787 331.68L132.499 335.973L128.21 340.265L123.922 344.557L119.633 348.849L115.344 353.141L111.056 357.433L106.767 361.725L102.479 366.017L102.095 366.401C102.31 366.447 102.525 366.494 102.75 366.541L103.506 365.783Z" fill="#9A8CF3"/>
<path d="M103.506 361.482L107.795 357.19L112.084 352.898L116.372 348.606L120.661 344.314L124.949 340.022L129.238 335.729L133.527 331.437L137.815 327.145L142.104 322.853L146.392 318.561L150.681 314.269L154.97 309.977L159.258 305.685L163.547 301.393L167.836 297.101L172.124 292.809L176.413 288.516L179.178 285.749C179.122 285.543 179.066 285.328 179.01 285.122L175.394 288.741L171.106 293.033L166.817 297.325L162.528 301.617L158.24 305.909L153.951 310.201L149.663 314.493L145.374 318.786L141.085 323.078L136.797 327.37L132.508 331.662L128.22 335.954L123.931 340.246L115.344 348.84L111.056 353.132L106.767 357.424L98.6571 365.54C98.8627 365.596 99.0682 365.653 99.2831 365.709L103.497 361.491L103.506 361.482Z" fill="#9A8CF3"/>
<path d="M99.2177 361.482L103.506 357.19L107.795 352.898L112.084 348.606L116.372 344.314L120.661 340.022L124.949 335.729L129.238 331.437L133.527 327.145L137.815 322.853L142.104 318.561L149.046 311.613L150.681 309.977L154.97 305.685L159.258 301.393L163.547 297.101L167.836 292.809L172.124 288.516L176.413 284.224L178.188 282.448C178.123 282.251 178.057 282.046 177.992 281.849L175.394 284.449L171.106 288.741L166.817 293.033L162.528 297.325L158.24 301.617L153.951 305.909L149.663 310.201L145.374 314.493L141.085 318.786L136.797 323.078L132.508 327.37L128.22 331.662L123.931 335.954L119.642 340.246L115.354 344.538L111.065 348.83L106.776 353.122L102.488 357.414L98.1992 361.706L95.4056 364.502C95.6018 364.568 95.8073 364.633 96.0036 364.699L99.227 361.473L99.2177 361.482Z" fill="#9A8CF3"/>
<path d="M94.8917 241.229C94.4806 241.369 94.0695 241.519 93.6583 241.677L89.6127 245.726L85.324 250.019L81.0354 254.311L76.7468 258.603L72.4582 262.895L68.1696 267.187L63.881 271.479L59.5924 275.771L55.3598 280.007C55.2103 280.419 55.0608 280.83 54.9113 281.241L56.3128 279.839L60.6014 275.547L64.8901 271.255L69.1787 266.962L73.4673 262.67L77.7559 258.378L82.0445 254.086L86.3331 249.794L90.6217 245.502L94.8823 241.238L94.8917 241.229Z" fill="#9A8CF3"/>
<path d="M90.6311 357.19L94.9197 352.898L99.2084 348.606L103.497 344.314L107.786 340.021L112.074 335.729L116.363 331.437L120.651 327.145L124.94 322.853L129.229 318.561L133.517 314.269L137.806 309.977L142.095 305.685L146.383 301.393L150.672 297.101L154.96 292.808L159.249 288.516L163.538 284.224L167.826 279.932L172.115 275.64L174.404 273.349C174.311 273.171 174.226 273.003 174.133 272.826L171.096 275.865L166.808 280.157L162.519 284.449L158.231 288.741L153.942 293.033L149.653 297.325L145.365 301.617L141.076 305.909L136.787 310.201L132.499 314.493L128.21 318.785L123.922 323.078L115.335 331.671L111.046 335.963L106.758 340.255L98.3768 348.643L98.1712 348.849L93.8826 353.141L89.594 357.433L86.3612 360.668C86.5387 360.762 86.7069 360.846 86.8844 360.94L90.6124 357.209L90.6311 357.19Z" fill="#9A8CF3"/>
<path d="M85.8567 245.184L85.3148 245.726L81.0262 250.019L76.7375 254.311L72.4489 258.603L68.1603 262.895L63.8717 267.187L59.5831 271.479L58.8636 272.199C58.574 272.741 58.303 273.284 58.0321 273.826L60.6109 271.245L64.8995 266.953L69.1881 262.661L73.4767 258.369L77.7653 254.077L82.0539 249.785L86.3425 245.493L87.4824 244.352C86.9312 244.623 86.3893 244.904 85.8567 245.184Z" fill="#9A8CF3"/>
<path d="M82.0446 352.889L90.4256 344.501L90.6312 344.295L94.9198 340.003L99.2084 335.711L103.497 331.419L107.786 327.127L112.074 322.835L116.363 318.542L120.651 314.25L124.94 309.958L129.229 305.666L133.517 301.374L137.806 297.082L142.095 292.79L146.383 288.498L150.672 284.206L154.96 279.914L159.249 275.622L163.538 271.329L167.826 267.037L169.564 265.298C169.452 265.139 169.349 264.989 169.237 264.84L166.808 267.271L162.519 271.563L158.231 275.855L153.942 280.147L149.653 284.44L145.365 288.732L141.076 293.024L136.787 297.316L132.499 301.608L128.21 305.9L123.922 310.192L115.335 318.786L111.046 323.078L106.758 327.37L102.469 331.662L98.1806 335.954L93.892 340.246L89.6034 344.538L85.3148 348.83L81.0262 353.122L78.41 355.741C78.5595 355.853 78.7183 355.965 78.8678 356.068L82.0446 352.889Z" fill="#9A8CF3"/>
<path d="M67.1792 345.492C67.3007 345.632 67.4315 345.772 67.5529 345.913L69.1693 344.295L73.458 340.003L77.7466 335.711L82.0352 331.419L86.3238 327.127L90.6124 322.835L94.901 318.542L99.1896 314.25L103.478 309.958L107.767 305.666L112.055 301.374L116.344 297.082L120.633 292.79L124.921 288.498L129.21 284.206L133.499 279.914L137.787 275.621L142.076 271.329L146.364 267.037L150.653 262.745L154.942 258.453L159.23 254.161L159.408 253.983C159.268 253.862 159.127 253.731 158.987 253.609L158.212 254.385L153.923 258.678L149.635 262.97L145.346 267.262L141.057 271.554L136.769 275.846L132.48 280.138L128.192 284.43L123.903 288.722L119.614 293.014L115.326 297.306L111.037 301.598L106.748 305.891L102.46 310.183L98.1712 314.475L93.8826 318.767L89.594 323.059L85.3054 327.351L81.0168 331.643L76.7281 335.935L72.4395 340.227L68.1509 344.519L67.1885 345.483L67.1792 345.492Z" fill="#9A8CF3"/>
<path d="M63.3951 340.695C63.5072 340.844 63.6194 341.003 63.7315 341.153L64.8807 340.003L69.1693 335.711L73.4579 331.419L77.7466 327.127L82.0352 322.834L86.3238 318.542L90.6124 314.25L94.901 309.958L99.1896 305.666L103.478 301.374L107.767 297.082L112.055 292.79L116.344 288.498L120.633 284.206L124.921 279.914L129.21 275.621L133.499 271.329L137.787 267.037L142.076 262.745L146.364 258.453L150.653 254.161L154.652 250.159C154.502 250.047 154.344 249.934 154.194 249.822L153.923 250.093L149.635 254.385L145.346 258.678L141.057 262.97L136.769 267.262L132.48 271.554L128.191 275.846L123.903 280.138L119.614 284.43L115.326 288.722L111.037 293.014L106.748 297.306L102.46 301.598L98.1712 305.891L93.8826 310.183L89.594 314.475L85.3054 318.767L81.0167 323.059L76.7281 327.351L72.4395 331.643L68.1509 335.935L63.8623 340.227L63.4045 340.685L63.3951 340.695Z" fill="#9A8CF3"/>
<path d="M64.8714 335.711L73.458 327.117L77.7466 322.825L82.0352 318.533L88.9773 311.585L90.6124 309.949L94.901 305.657L99.1896 301.365L103.478 297.073L107.767 292.78L112.055 288.488L116.344 284.196L120.633 279.904L124.921 275.612L129.21 271.32L133.499 267.028L137.787 262.736L142.076 258.444L146.364 254.152L150.653 249.86L152.12 248.391C151.961 248.289 151.802 248.176 151.643 248.074L149.635 250.084L145.346 254.376L141.057 258.668L136.769 262.96L132.48 267.252L128.192 271.544L123.903 275.837L119.614 280.129L115.326 284.421L111.037 288.713L106.748 293.005L102.46 297.297L98.1712 301.589L93.8826 305.881L89.594 310.173L85.3054 314.465L81.0167 318.757L76.7281 323.05L72.4395 327.342L68.1509 331.634L63.8623 335.926L61.6666 338.123C61.7694 338.282 61.8721 338.441 61.9843 338.6L64.8901 335.692L64.8714 335.711Z" fill="#9A8CF3"/>
<path d="M65.5908 343.584L69.1693 340.003L73.458 335.711L77.7466 331.419L82.0352 327.127L86.3238 322.835L90.6124 318.542L94.901 314.25L99.1896 309.958L103.478 305.666L107.767 301.374L112.055 297.082L116.344 292.79L120.633 288.498L124.921 284.206L129.21 279.914L133.499 275.621L137.787 271.329L142.076 267.037L146.364 262.745L150.653 258.453L154.942 254.161L157.081 252.02C156.932 251.898 156.792 251.786 156.642 251.664L153.923 254.385L149.635 258.678L145.346 262.97L141.057 267.262L136.769 271.554L132.48 275.846L128.192 280.138L123.903 284.43L119.614 288.722L115.326 293.014L111.037 297.306L106.748 301.598L102.46 305.891L98.1712 310.183L93.8826 314.475L89.594 318.767L85.3054 323.059L76.7188 331.652L72.4302 335.945L68.1416 340.237L65.2358 343.145C65.3479 343.294 65.4694 343.435 65.5908 343.584Z" fill="#9A8CF3"/>
<path d="M59.555 331.643L58.4992 332.7C58.5926 332.877 58.6767 333.046 58.7701 333.223L60.5734 331.419L64.862 327.127L69.1506 322.834L73.4393 318.542L77.7279 314.25L82.0165 309.958L86.3051 305.666L90.5937 301.374L94.8823 297.082L99.1709 292.79L103.46 288.498L107.748 284.206L112.037 279.914L116.325 275.621L120.614 271.329L124.903 267.037L129.191 262.745L133.48 258.453L137.768 254.161L142.057 249.869L146.346 245.577L146.71 245.212C146.542 245.119 146.364 245.025 146.196 244.941L145.327 245.811L141.039 250.103L136.75 254.395L132.461 258.687L128.173 262.979L123.884 267.271L119.596 271.563L115.307 275.855L111.018 280.147L106.73 284.439L102.441 288.732L98.1525 293.024L93.8639 297.316L89.5753 301.608L85.2867 305.9L80.9981 310.192L76.7094 314.484L72.4208 318.776L68.1322 323.068L59.7512 331.456L59.5456 331.662L59.555 331.643Z" fill="#9A8CF3"/>
<path d="M60.5828 327.117L64.8714 322.825L69.16 318.533L73.4486 314.241L77.7372 309.949L82.0258 305.657L86.3145 301.365L90.6031 297.073L94.8917 292.78L99.1803 288.488L103.469 284.196L107.758 279.904L112.046 275.612L116.335 271.32L120.623 267.028L124.912 262.736L129.201 258.444L133.489 254.152L137.778 249.86L142.066 245.567L143.86 243.772C143.683 243.688 143.505 243.604 143.318 243.52L141.039 245.801L136.75 250.093L132.461 254.385L128.173 258.678L123.884 262.97L119.596 267.262L115.307 271.554L111.018 275.846L106.73 280.138L102.441 284.43L98.1525 288.722L93.8639 293.014L89.5753 297.306L85.2867 301.598L80.9981 305.891L76.7095 310.183L72.4208 314.475L68.1322 318.767L63.8436 323.059L59.555 327.351L57.0977 329.81C57.1818 329.988 57.2659 330.175 57.35 330.353L60.5828 327.117Z" fill="#9A8CF3"/>
<path d="M60.3212 335.973L60.5828 335.711L64.8714 331.419L69.16 327.127L73.4486 322.835L77.7373 318.542L82.0259 314.25L86.3145 309.958L90.6031 305.666L94.8917 301.374L99.1803 297.082L103.469 292.79L107.758 288.498L112.046 284.206L116.335 279.914L120.623 275.621L124.912 271.329L129.201 267.037L133.489 262.745L137.778 258.453L142.066 254.161L146.355 249.869L149.476 246.746C149.308 246.643 149.149 246.549 148.981 246.456L145.337 250.103L141.048 254.395L136.759 258.687L132.471 262.979L128.182 267.271L123.894 271.563L119.605 275.855L115.316 280.147L111.028 284.439L106.739 288.732L102.451 293.024L98.1619 297.316L93.8733 301.608L89.5847 305.9L85.2961 310.192L76.7095 318.786L72.4209 323.078L68.1323 327.37L63.8436 331.662L60.0128 335.496C60.1063 335.664 60.2091 335.832 60.3025 335.991L60.3212 335.973Z" fill="#9A8CF3"/>
<path d="M56.2848 284.159L60.5734 279.867L64.862 275.575L69.1506 271.283L73.4393 266.991L77.7279 262.698L82.0165 258.406L86.3051 254.114L90.5937 249.822L94.8823 245.53L99.1709 241.238L100.937 239.471C100.582 239.555 100.236 239.639 99.8811 239.732L98.1432 241.472L93.8546 245.764L89.5659 250.056L85.2773 254.348L80.9887 258.64L76.7001 262.932L72.4115 267.224L68.1229 271.516L63.8343 275.809L59.5456 280.101L55.257 284.393L53.3416 286.31C53.2482 286.656 53.1641 287.011 53.08 287.366L56.2848 284.159Z" fill="#9A8CF3"/>
<path d="M56.2848 314.232L60.5734 309.94L64.862 305.647L69.1506 301.355L73.4393 297.063L77.7279 292.771L82.0165 288.479L86.3051 284.187L90.5937 279.895L94.8823 275.603L99.1709 271.311L103.46 267.019L107.748 262.727L112.037 258.434L116.325 254.142L120.614 249.85L124.903 245.558L129.191 241.266L131.107 239.349C130.892 239.302 130.677 239.256 130.462 239.209L128.173 241.5L123.884 245.792L119.596 250.084L115.307 254.376L111.018 258.668L106.73 262.96L102.441 267.252L98.1525 271.544L93.8639 275.837L89.5753 280.129L85.2867 284.421L80.9981 288.713L76.7094 293.005L72.4208 297.297L68.1322 301.589L63.8436 305.881L59.555 310.173L55.2664 314.465L52.7904 316.943C52.8371 317.158 52.8838 317.374 52.9305 317.589L56.2848 314.232Z" fill="#9A8CF3"/>
<path d="M54.8647 324.246L56.2848 322.825L60.5735 318.533L64.8621 314.241L69.1507 309.949L73.4393 305.657L77.7279 301.365L82.0165 297.073L86.3052 292.781L90.5938 288.488L94.8824 284.196L99.171 279.904L103.46 275.612L107.748 271.32L112.037 267.028L116.325 262.736L120.614 258.444L124.903 254.152L129.191 249.86L133.48 245.568L137.759 241.285C137.563 241.219 137.367 241.144 137.171 241.079L136.75 241.5L132.461 245.792L128.173 250.084L123.884 254.376L119.596 258.668L115.307 262.96L111.018 267.252L106.73 271.544L102.441 275.837L98.1526 280.129L93.8639 284.421L89.5753 288.713L85.2867 293.005L80.9981 297.297L76.7095 301.589L72.4209 305.881L68.1323 310.173L61.6947 316.616L59.5457 318.767L55.2571 323.059L54.6497 323.667C54.7152 323.863 54.7899 324.059 54.8553 324.256L54.8647 324.246Z" fill="#9A8CF3"/>
<path d="M56.2848 318.524L60.5734 314.232L64.862 309.939L69.1506 305.647L73.4393 301.355L77.7279 297.063L82.0165 292.771L86.3051 288.479L90.5937 284.187L94.8823 279.895L99.1709 275.603L103.46 271.311L107.748 267.019L112.037 262.726L116.325 258.434L120.614 254.142L124.903 249.85L129.191 245.558L133.48 241.266L134.508 240.237C134.302 240.181 134.097 240.116 133.891 240.06L132.461 241.49L128.173 245.783L123.884 250.075L119.596 254.367L115.307 258.659L111.018 262.951L106.73 267.243L102.441 271.535L98.1525 275.827L93.8639 280.119L89.5753 284.411L85.2867 288.703L80.9981 292.996L76.7094 297.288L72.4208 301.58L68.1322 305.872L63.8436 310.164L59.555 314.456L55.2664 318.748L53.65 320.366C53.706 320.572 53.7621 320.777 53.8275 320.983L56.2848 318.524Z" fill="#9A8CF3"/>
<path d="M56.0419 327.36L56.2848 327.117L60.5734 322.825L64.8621 318.533L73.131 310.257L73.4486 309.94L77.7372 305.647L82.0259 301.355L86.3145 297.063L90.6031 292.771L94.8917 288.479L99.1803 284.187L103.469 279.895L107.758 275.603L112.046 271.311L116.335 267.019L120.623 262.727L124.912 258.434L129.201 254.142L133.489 249.85L137.778 245.558L140.88 242.454C140.693 242.379 140.506 242.295 140.319 242.22L136.759 245.783L132.471 250.075L128.182 254.367L123.894 258.659L119.605 262.951L115.316 267.243L111.028 271.535L106.739 275.827L102.451 280.119L98.1619 284.411L93.8733 288.703L89.5847 292.996L85.296 297.288L81.0074 301.58L76.7188 305.872L72.4302 310.164L68.1416 314.456L63.853 318.748L59.5644 323.04L55.8177 326.79C55.8924 326.977 55.9672 327.164 56.0512 327.351L56.0419 327.36Z" fill="#9A8CF3"/>
<path d="M51.9962 297.045L56.2848 292.752L60.5735 288.46L64.8621 284.168L69.1507 279.876L73.4393 275.584L77.7279 271.292L82.0165 267L86.3052 262.708L90.5938 258.416L94.8824 254.124L99.171 249.832L103.46 245.539L107.748 241.247L111.149 237.844C110.86 237.862 110.57 237.89 110.28 237.918L106.73 241.472L102.441 245.764L98.1526 250.056L93.864 254.348L89.5753 258.64L85.2867 262.932L80.9981 267.224L76.7095 271.516L72.4209 275.809L68.1323 280.101L63.8436 284.393L59.555 288.685L55.2664 292.977L51.5291 296.717C51.501 297.007 51.473 297.297 51.4543 297.587L51.9962 297.045Z" fill="#9A8CF3"/>
<path d="M279.405 177.268H177.142V346.745H279.405V177.268Z" fill="white" stroke="#1F1F1F" stroke-linecap="round" stroke-linejoin="round"/>
<path d="M291.808 346.834V207.298H367.733V346.834H291.808Z" fill="#ADD493" stroke="#1F1F1F"/>
<path d="M291.808 346.834V207.298H367.733V346.834H291.808Z" stroke="#1F1F1F"/>
<path d="M457.079 259.538H380.155V346.913H457.079V259.538Z" fill="white" stroke="#1F1F1F" stroke-linecap="round" stroke-linejoin="round"/>
<path d="M55.4346 276.996H1V347.016H55.4346V276.996Z" fill="white" stroke="#1F1F1F" stroke-linecap="round" stroke-linejoin="round"/>
<path d="M449.951 31.3169C451.71 30.8455 452.754 29.0374 452.282 27.2783C451.811 25.5192 450.003 24.4753 448.244 24.9466C446.485 25.418 445.441 27.2261 445.912 28.9852C446.384 30.7443 448.192 31.7882 449.951 31.3169Z" stroke="black" stroke-linecap="round" stroke-linejoin="round"/>
<path d="M338.431 109.303C343.985 114.676 353.758 112.969 359.327 107.607C364.896 102.246 367.181 94.3829 368.768 86.8187C371.253 74.9664 357.113 83.0362 367.188 96.1493C371.338 101.554 377.545 106.584 384.255 105.398C393.81 103.705 396.676 91.8285 400.117 82.7557C402.469 76.5543 404.195 64.8606 409.972 62.2231C418.701 58.2385 422.578 71.422 424.539 74.7995C426.501 78.177 429.908 81.3896 433.773 80.8321C438.428 80.1519 440.482 74.8309 442.892 70.7936C448.267 61.803 459.711 56.9128 469.92 59.2371" stroke="black" stroke-linecap="round" stroke-linejoin="round"/>
<path d="M215.855 117.695L215.855 117.693C218.003 117.248 220.118 118.464 220.841 120.481L145.463 140.147L145.461 140.148C143.92 140.555 142.296 139.846 141.546 138.433L141.546 138.433L141.541 138.425L141.51 138.369L112.228 64.6056L113.7 63.8246C113.7 63.8245 113.7 63.8245 113.7 63.8244C116.386 62.4037 119.72 63.4182 121.155 66.0995L149.524 129.353L149.531 129.368L149.539 129.383C150.316 130.841 151.958 131.61 153.57 131.264L153.572 131.264L215.855 117.695Z" fill="#ADD493" stroke="#1F1F1F"/>
<path d="M114.307 227.183C114.307 227.183 109.224 237.703 105.45 240.097L95.0878 242.556C90.2199 243.136 88.5942 246.652 88.5942 246.652L115.98 259.332L129.154 233.598L114.317 227.183H114.307Z" fill="#1F1F1F"/>
<path d="M256.215 135.787C256.215 135.787 191.007 138.237 160.417 142.885C151.569 144.231 143.916 149.786 139.805 157.743L103.824 227.324L135.694 244.099L172.601 177.24L239.705 175.239L256.215 135.778V135.787Z" fill="white" stroke="#1F1F1F" stroke-linecap="round" stroke-linejoin="round"/>
<path d="M258.775 119.975C257.924 122.808 256.635 125.51 254.804 127.839C239.537 147.242 207.881 123.528 182.009 123.724C178.44 123.752 175.273 123.818 174.507 124.968C173.217 126.894 171.694 129.672 170.76 129.597C169.685 129.503 171.367 125.725 172.32 122.883C172.32 122.883 169.134 130.747 167.966 130.317C166.555 129.793 170.153 120.835 170.153 120.835C170.153 120.835 165.574 130.008 164.397 128.587C163.22 127.166 168.2 119.002 168.2 119.002C168.2 119.002 163.491 126.277 161.977 125.548C160.753 124.949 164.743 119.414 168.844 115.028C171.274 112.438 174.432 110.652 177.926 109.988C181.262 109.352 186.167 108.959 193.175 109.474C193.175 109.474 219.317 112.391 241.088 115.935L249.525 76.8667C250.562 72.0603 254.196 68.1236 258.989 67.0202C262.736 66.1599 266.95 66.5433 269.716 70.9102C271.678 74.0147 272.005 77.8766 270.902 81.3832L258.775 119.993V119.975Z" fill="white" stroke="#1F1F1F" stroke-linecap="round" stroke-linejoin="round"/>
<path d="M176.487 242.715C176.487 242.715 183.654 255.891 183.289 260.351L179.019 270.123C176.553 274.368 178.384 277.772 178.384 277.772L204.975 263.503L192.315 237.404L176.478 242.706L176.487 242.715Z" fill="#1F1F1F"/>
<path d="M262.774 127.512C262.774 127.512 171.676 122.116 145.43 146.849C124.277 166.786 170.928 252.45 170.928 252.45L204.125 238.461L177.141 178.082L254.664 177.072C254.664 177.072 286.179 168.057 278.069 127.512H262.764H262.774Z" fill="white" stroke="#1F1F1F" stroke-linecap="round" stroke-linejoin="round"/>
<path d="M308.622 64.6637C308.622 64.6637 310.565 54.6862 299.325 50.5999C289.262 46.9436 288.328 36.5828 288.328 36.5828C288.328 36.5828 285.114 28.4755 276.041 28.9898C266.969 29.4948 271.528 14.1124 256.074 11.0547C253.757 10.5965 251.618 11.5222 249.749 13.0838C244.012 17.8715 243.078 26.3528 247.17 32.5993L268.202 64.6544H308.622V64.6637Z" fill="#1F1F1F" stroke="#1F1F1F" stroke-linecap="round" stroke-linejoin="round"/>
<path d="M250.253 73.276L240.34 48.5427L248.973 36.2929L270.258 67.6934L250.253 73.276Z" fill="white" stroke="#1F1F1F" stroke-linecap="round" stroke-linejoin="round"/>
<path d="M244.18 56.4816L248.497 49.5339L242.069 51.348L244.18 56.4816Z" fill="#1F1F1F" stroke="#1F1F1F" stroke-linecap="round" stroke-linejoin="round"/>
<path d="M265.754 19.1994C271.071 29.5228 261.858 44.8678 250.898 50.5251C239.938 56.1824 231.221 52.4981 227.082 41.651C223.223 31.5239 225.325 16.4128 236.276 10.7555C247.236 5.09812 260.428 8.87591 265.754 19.1994Z" fill="white" stroke="#1F1F1F" stroke-linecap="round" stroke-linejoin="round"/>
<path d="M266.838 22.0982C263.362 11.1762 252.337 5.84619 240.452 9.13773C231.1 11.7279 225.073 20.8732 224.438 30.1026C224.568 30.14 231.987 29.9062 235.155 21.6774C235.155 21.6774 236.033 34.9183 249.992 32.3468L256.196 46.9437C264.474 43.1098 270.697 34.1889 266.847 22.0982H266.838Z" fill="#1F1F1F" stroke="#1F1F1F" stroke-linecap="round" stroke-linejoin="round"/>
<path d="M237.901 45.3072C237.901 45.3072 240.901 45.0828 241.377 41.7071L237.901 45.3072Z" fill="white"/>
<path d="M237.901 45.3072C237.901 45.3072 240.901 45.0828 241.377 41.7071" stroke="#1F1F1F" stroke-linecap="round" stroke-linejoin="round"/>
<path d="M251.524 42.3056C252.851 41.9222 254.103 41.0152 254.963 39.678C256.691 37.0036 256.205 33.6279 253.888 32.1224C252.309 31.1031 250.665 31.4678 249.235 32.646" fill="white"/>
<path d="M251.524 42.3056C252.851 41.9222 254.103 41.0152 254.963 39.678C256.691 37.0036 256.205 33.6279 253.888 32.1224C252.309 31.1031 250.665 31.4678 249.235 32.646" stroke="#1F1F1F" stroke-linecap="round" stroke-linejoin="round"/>
<path d="M249.749 38.8364C249.749 38.8364 250.394 36.2461 252.673 36.7324L249.749 38.8364Z" fill="white"/>
<path d="M249.749 38.8364C249.749 38.8364 250.394 36.2461 252.673 36.7324" stroke="#1F1F1F" stroke-linecap="round" stroke-linejoin="round"/>
<path d="M257.691 8.56732C257.915 12.5228 261.297 15.5431 265.24 15.3187C269.193 15.0943 272.21 11.7092 271.986 7.76313C271.762 3.80768 268.38 0.787316 264.437 1.01174C260.484 1.23616 257.467 4.62121 257.691 8.56732Z" fill="#1F1F1F" stroke="#1F1F1F" stroke-linecap="round" stroke-linejoin="round"/>
<path d="M245.283 65.6643L266.371 58.1274C266.371 58.1274 291.654 100.132 292.56 128.063C292.56 128.063 262.774 127.512 237.126 127.222L245.283 65.6549V65.6643Z" fill="#1F1F1F"/>
<path d="M250.44 77.9795H258.933" stroke="white" stroke-linecap="round" stroke-linejoin="round"/>
<path d="M254.692 69.4795L262.605 66.1879" stroke="white" stroke-linecap="round" stroke-linejoin="round"/>
<path d="M268.015 68.7034V77.9795" stroke="white" stroke-linecap="round" stroke-linejoin="round"/>
<path d="M263.96 89.182L269.557 83.3844" stroke="white" stroke-linecap="round" stroke-linejoin="round"/>
<path d="M252.757 88.0224L251.795 94.9796" stroke="white" stroke-linecap="round" stroke-linejoin="round"/>
<path d="M259.905 97.6913L268.015 99.2343" stroke="white" stroke-linecap="round" stroke-linejoin="round"/>
<path d="M274.771 98.4581L280.171 93.0533" stroke="white" stroke-linecap="round" stroke-linejoin="round"/>
<path d="M263.96 105.612L269.557 110.053" stroke="white" stroke-linecap="round" stroke-linejoin="round"/>
<path d="M269.557 119.46H278.05" stroke="white" stroke-linecap="round" stroke-linejoin="round"/>
<path d="M273.808 110.951L281.722 107.669" stroke="white" stroke-linecap="round" stroke-linejoin="round"/>
<path d="M287.122 110.184V119.46" stroke="white" stroke-linecap="round" stroke-linejoin="round"/>
<path d="M283.067 130.663L288.673 124.865" stroke="white" stroke-linecap="round" stroke-linejoin="round"/>
<path d="M271.874 129.503L270.912 136.46" stroke="white" stroke-linecap="round" stroke-linejoin="round"/>
<path d="M279.022 139.172L287.122 140.715" stroke="white" stroke-linecap="round" stroke-linejoin="round"/>
<path d="M293.887 139.939L299.287 134.534" stroke="white" stroke-linecap="round" stroke-linejoin="round"/>
<path d="M283.067 147.092L288.673 151.534" stroke="white" stroke-linecap="round" stroke-linejoin="round"/>
<path d="M231.361 101.843H239.854" stroke="white" stroke-linecap="round" stroke-linejoin="round"/>
<path d="M235.603 93.3431L243.517 90.0516" stroke="white" stroke-linecap="round" stroke-linejoin="round"/>
<path d="M244.872 113.055L250.468 107.257" stroke="white" stroke-linecap="round" stroke-linejoin="round"/>
<path d="M233.678 111.895L232.707 118.853" stroke="white" stroke-linecap="round" stroke-linejoin="round"/>
<path d="M240.817 121.555L248.927 123.098" stroke="white" stroke-linecap="round" stroke-linejoin="round"/>
<path d="M255.682 122.331L261.092 116.917" stroke="white" stroke-linecap="round" stroke-linejoin="round"/>
<path d="M244.872 129.475L250.468 133.917" stroke="white" stroke-linecap="round" stroke-linejoin="round"/>
<path d="M234.837 131.719C233.136 134.141 231.071 136.311 228.605 137.938C208.021 151.553 185.401 119.105 160.781 111.157C157.38 110.063 154.353 109.128 153.269 109.978C151.438 111.409 149.121 113.569 148.261 113.195C147.271 112.774 150.055 109.707 151.849 107.313C151.849 107.313 146.355 113.775 145.383 113.008C144.206 112.064 150.429 104.695 150.429 104.695C150.429 104.695 143.206 111.961 142.534 110.24C141.861 108.52 149.149 102.329 149.149 102.329C149.149 102.329 142.393 107.753 141.188 106.584C140.207 105.63 145.738 101.628 151.008 98.7573C154.129 97.0554 157.689 96.3541 161.211 96.8217C164.575 97.2705 169.358 98.43 175.852 101.123C175.852 101.123 199.762 112.11 219.308 122.312L239.583 87.8728C242.078 83.6275 246.768 81.0466 251.664 81.5048C255.495 81.8601 259.373 83.5527 260.625 88.5741C261.512 92.1368 260.606 95.9053 258.466 98.8882L234.846 131.729L234.837 131.719Z" fill="white" stroke="#1F1F1F" stroke-linecap="round" stroke-linejoin="round"/>
<path d="M220.13 113.036L243.545 129.597C243.545 129.597 280.909 82.5053 263.652 71.1346C247.366 60.3997 220.13 113.036 220.13 113.036Z" fill="#1F1F1F" stroke="#1F1F1F" stroke-linecap="round" stroke-linejoin="round"/>
<path d="M250.44 77.9795H258.934" stroke="white" stroke-linecap="round" stroke-linejoin="round"/>
<path d="M254.692 69.4795L262.605 66.1879" stroke="white" stroke-linecap="round" stroke-linejoin="round"/>
<path d="M268.015 68.7033V77.9795" stroke="white" stroke-linecap="round" stroke-linejoin="round"/>
<path d="M263.96 89.182L269.557 83.3844" stroke="white" stroke-linecap="round" stroke-linejoin="round"/>
<path d="M252.758 88.0224L251.795 94.9795" stroke="white" stroke-linecap="round" stroke-linejoin="round"/>
<path d="M259.905 97.6913L268.015 99.2342" stroke="white" stroke-linecap="round" stroke-linejoin="round"/>
<path d="M274.771 98.4581L280.171 93.0533" stroke="white" stroke-linecap="round" stroke-linejoin="round"/>
<path d="M263.96 105.612L269.557 110.053" stroke="white" stroke-linecap="round" stroke-linejoin="round"/>
<path d="M269.557 119.46H278.05" stroke="white" stroke-linecap="round" stroke-linejoin="round"/>
<path d="M273.808 110.951L281.722 107.669" stroke="white" stroke-linecap="round" stroke-linejoin="round"/>
<path d="M287.122 110.184V119.46" stroke="white" stroke-linecap="round" stroke-linejoin="round"/>
<path d="M283.067 130.663L288.673 124.865" stroke="white" stroke-linecap="round" stroke-linejoin="round"/>
<path d="M271.874 129.503L270.912 136.46" stroke="white" stroke-linecap="round" stroke-linejoin="round"/>
<path d="M279.022 139.172L287.122 140.715" stroke="white" stroke-linecap="round" stroke-linejoin="round"/>
<path d="M293.887 139.939L299.288 134.534" stroke="white" stroke-linecap="round" stroke-linejoin="round"/>
<path d="M283.067 147.092L288.673 151.534" stroke="white" stroke-linecap="round" stroke-linejoin="round"/>
<path d="M231.361 101.843H239.854" stroke="white" stroke-linecap="round" stroke-linejoin="round"/>
<path d="M235.603 93.3431L243.517 90.0516" stroke="white" stroke-linecap="round" stroke-linejoin="round"/>
<path d="M244.872 113.055L250.468 107.257" stroke="white" stroke-linecap="round" stroke-linejoin="round"/>
<path d="M233.678 111.895L232.707 118.853" stroke="white" stroke-linecap="round" stroke-linejoin="round"/>
<path d="M240.817 121.555L248.927 123.098" stroke="white" stroke-linecap="round" stroke-linejoin="round"/>
<path d="M255.682 122.331L261.092 116.917" stroke="white" stroke-linecap="round" stroke-linejoin="round"/>
<path d="M244.872 129.475L250.468 133.917" stroke="white" stroke-linecap="round" stroke-linejoin="round"/>
</svg>
