<svg width="149" height="40" viewBox="0 0 149 40" fill="none" xmlns="http://www.w3.org/2000/svg">
<path d="M52.6915 33.3076C48.6203 33.3076 44.9726 31.8367 43.4744 28.7313C42.9858 27.8487 43.2464 26.77 44.4189 26.247C45.4937 25.7566 46.2753 26.345 46.6336 26.77C48.1644 28.9601 50.2814 30.0061 52.7892 30.0061C56.437 30.0061 58.8797 28.3063 58.8797 25.7566V25.5278C58.8797 18.696 43.2138 24.6125 43.2138 14.5119V14.0869C43.2138 9.64132 47.057 6.66669 52.8218 6.66669C56.7627 6.66669 59.9219 8.26841 61.5504 11.0469C62.2018 11.8968 61.7784 13.0409 60.6384 13.4985C59.4985 13.9562 58.8471 13.4985 58.4563 13.0082C57.0558 10.9162 55.1016 9.9682 52.7566 9.9682C49.2717 9.9682 46.9593 11.5372 46.9593 13.8581V14.0869C46.9593 20.9515 62.7229 15.0022 62.7229 25.0702V25.4951C62.7229 30.1695 58.6843 33.3076 52.6915 33.3076ZM67.8363 11.0469C66.6312 11.0469 65.9798 10.3931 65.9798 9.31444V8.46454C65.9798 7.35314 66.6312 6.73206 67.8363 6.73206C69.0413 6.73206 69.6927 7.35314 69.6927 8.46454V9.31444C69.6927 10.3931 69.0413 11.0469 67.8363 11.0469ZM67.8363 33.2422C66.6312 33.2422 65.9798 32.5231 65.9798 31.3136V16.179C65.9798 14.9368 66.6312 14.2504 67.8363 14.2504C69.0413 14.2504 69.6927 14.9368 69.6927 16.179V31.3136C69.6927 32.5231 69.0413 33.2422 67.8363 33.2422ZM81.6457 30.0061C82.6553 30.0061 83.209 30.5618 83.209 31.5098C83.209 32.425 82.6553 32.9807 81.6457 32.9807H80.2778C77.1837 32.9807 75.0992 31.1175 75.0992 28.3063V17.4865H73.6011C72.624 17.4865 72.0377 16.9308 72.0377 15.9828C72.0377 15.0349 72.624 14.5119 73.6011 14.5119H75.197V11.1777C75.197 9.9682 75.8483 9.28175 77.0208 9.28175C78.1933 9.28175 78.8122 9.9682 78.8122 11.1777V14.5119H81.9714C82.981 14.5119 83.5347 15.0349 83.5347 15.9828C83.5347 16.9308 82.981 17.4865 81.9714 17.4865H78.8122V28.1102C78.8122 29.2543 79.5612 30.0061 80.6686 30.0061H81.6457Z" fill="#82C44D"/>
<path d="M102.523 7.05894C103.565 7.64733 103.858 8.5626 103.207 9.64132L95.3249 22.4224V31.2809C95.3249 32.5231 94.6409 33.2422 93.4033 33.2422C92.1331 33.2422 91.4491 32.5231 91.4491 31.2809V22.4224L83.5673 9.64132C82.9159 8.5626 83.209 7.61464 84.2838 7.05894C85.3586 6.47055 86.2054 6.73206 86.8568 7.84346L93.4033 18.696L99.9497 7.84346C100.569 6.73206 101.448 6.47055 102.523 7.05894ZM123.074 29.6138C124.214 29.6138 124.833 30.2022 124.833 31.2809C124.833 32.3923 124.214 32.9807 123.074 32.9807H108.906C107.799 32.9807 107.18 32.3597 107.18 31.2483V8.72604C107.18 7.61464 107.799 6.99357 108.906 6.99357H122.748C123.888 6.99357 124.507 7.58195 124.507 8.69336C124.507 9.77207 123.888 10.3605 122.748 10.3605H111.056V18.0422H122.097C123.237 18.0422 123.856 18.6306 123.856 19.742C123.856 20.8534 123.237 21.4418 122.097 21.4418H111.056V29.6138H123.074ZM148.608 30.6926C148.999 31.902 148.576 32.7846 147.403 33.1442C146.198 33.4711 145.351 33.0134 144.993 31.804L143.43 27.1295H132.193L130.63 31.804C130.272 33.0134 129.425 33.4711 128.22 33.1442C127.08 32.7846 126.624 31.902 127.015 30.6926L134.408 9.08561C134.864 7.64733 135.971 6.83012 137.6 6.83012H138.023C139.652 6.83012 140.759 7.64733 141.215 9.08561L148.608 30.6926ZM133.333 23.7626H142.29L137.828 10.5239L133.333 23.7626Z" fill="#1F1F1F"/>
<path d="M16.3967 29.3786H7.09915C7.09398 29.3795 7.0888 29.3804 7.08363 29.3813C6.67711 29.451 6.2749 29.4467 5.89062 29.3782C4.98873 29.361 4.20427 28.8601 3.78197 28.1222C3.42776 27.6803 3.17509 27.1455 3.06652 26.5479L1.26199 16.6151C0.923629 14.7527 2.14754 12.9664 3.99567 12.6254C4.00981 12.6228 4.02397 12.6203 4.03814 12.6178C5.92097 12.2952 7.7113 13.558 8.05525 15.4512L9.67449 24.3641H18.4926C19.475 24.3641 20.3244 24.9379 20.7288 25.7711C20.9444 26.1131 21.0785 26.5139 21.1019 26.9471L21.6685 37.4443C21.7407 38.781 20.7239 39.9236 19.3974 39.9963C19.3943 39.9965 19.3912 39.9967 19.3881 39.9968C18.0547 40.0647 16.9179 39.0332 16.8453 37.6898L16.3967 29.3786ZM3.45073 11.6765C1.54494 11.6765 0 10.1763 0 8.32566C0 6.47505 1.54494 4.97482 3.45073 4.97482C5.35651 4.97482 6.90145 6.47505 6.90145 8.32566C6.90145 10.1763 5.35651 11.6765 3.45073 11.6765Z" fill="#1F1F1F"/>
<path d="M12.9537 3.13238C15.163 11.2645 21.6729 17.6159 30.008 19.7725C30.4168 19.8645 30.7418 20.1669 30.8558 20.5607C30.9698 20.9551 30.8547 21.378 30.5554 21.665C30.2562 21.9526 29.82 22.0572 29.418 21.9395C20.285 19.5775 13.1519 12.6181 10.731 3.70754C10.5749 3.11157 10.9404 2.50354 11.5501 2.34579C12.1598 2.18803 12.7864 2.5386 12.9537 3.13238ZM20.8094 12.107C18.0965 9.45965 16.1477 6.1599 15.1613 2.54189C14.9985 1.94318 15.3645 1.32858 15.9782 1.16973C16.5924 1.01088 17.2223 1.36747 17.3852 1.96673C19.1795 8.55255 24.4515 13.6966 31.2017 15.4479C31.8159 15.6062 32.1819 16.2197 32.0197 16.8189C31.8574 17.4182 31.2281 17.7753 30.6138 17.617C26.905 16.6557 23.5223 14.7549 20.8094 12.107ZM24.0624 8.93325C21.9177 6.84461 20.3788 4.23942 19.6012 1.38226C19.4563 0.789578 19.8224 0.193058 20.4254 0.0374919C21.0289 -0.118074 21.6493 0.224281 21.8234 0.808749C23.2006 5.84055 27.2278 9.77133 32.3846 11.1161C32.8894 11.2459 33.2414 11.6918 33.2414 12.2012C33.2414 12.2976 33.2285 12.3935 33.2032 12.4872C33.0415 13.0864 32.4127 13.4441 31.7985 13.2858C28.8711 12.5272 26.2015 11.0252 24.0624 8.93325Z" fill="#82C44D"/>
</svg>
