<svg width="18" height="20" viewBox="0 0 18 20" fill="none" xmlns="http://www.w3.org/2000/svg">
<path d="M8.98884 19.8677C8.72408 19.8677 8.45933 19.7994 8.22311 19.6633L0.993508 15.4889C0.521077 15.2165 0.227783 14.7083 0.227783 14.163V5.81486C0.227783 5.26932 0.521297 4.76111 0.993728 4.48867L8.22311 0.3145C8.69554 0.0418422 9.28213 0.0416227 9.75478 0.3145L16.9842 4.48845C17.4564 4.76089 17.7499 5.2691 17.7499 5.81464V14.1628C17.7499 14.7083 17.4564 15.2165 16.9839 15.4889L9.75456 19.6631C9.51835 19.7994 9.25359 19.8677 8.98884 19.8677ZM8.98884 1.42665C8.95196 1.42665 8.91508 1.43609 8.88193 1.45518L1.6521 5.62935C1.58602 5.66755 1.54497 5.73868 1.54497 5.81486V14.163C1.54497 14.2391 1.58602 14.3103 1.65188 14.3483L8.88171 18.5226C8.94757 18.5604 9.02967 18.5608 9.09575 18.5226L16.3256 14.3485C16.3916 14.3103 16.4325 14.2394 16.4325 14.163V5.81486C16.4325 5.73846 16.3914 5.66755 16.3258 5.62957L9.09575 1.45518C9.06282 1.43609 9.02572 1.42665 8.98884 1.42665Z" fill="#1F1F1F"/>
<path d="M6.16175 12.9441C5.93804 12.9441 5.72444 12.8297 5.60216 12.6328L3.96929 10.0022V12.2855C3.96929 12.6493 3.67446 12.9441 3.31069 12.9441C2.94693 12.9441 2.6521 12.6493 2.6521 12.2855V7.69204C2.6521 7.39787 2.84726 7.13926 3.13002 7.05869C3.41365 6.97856 3.71529 7.09492 3.87028 7.34474L5.50315 9.97539V7.69204C5.50315 7.32828 5.79798 7.03345 6.16175 7.03345C6.52551 7.03345 6.82034 7.32828 6.82034 7.69204V12.2855C6.82034 12.5797 6.62518 12.8383 6.34242 12.9189C6.28249 12.936 6.22168 12.9441 6.16175 12.9441Z" fill="#1F1F1F"/>
<path d="M8.38198 12.9441C8.01822 12.9441 7.72339 12.6493 7.72339 12.2855V7.69204C7.72339 7.32828 8.01822 7.03345 8.38198 7.03345H10.2087C10.5725 7.03345 10.8673 7.32828 10.8673 7.69204C10.8673 8.0558 10.5725 8.35063 10.2087 8.35063H9.04058V12.2855C9.04058 12.6493 8.74575 12.9441 8.38198 12.9441Z" fill="#1F1F1F"/>
<path d="M10.2087 10.6474H8.38198C8.01822 10.6474 7.72339 10.3526 7.72339 9.98879C7.72339 9.62503 8.01822 9.3302 8.38198 9.3302H10.2087C10.5725 9.3302 10.8673 9.62503 10.8673 9.98879C10.8673 10.3526 10.5725 10.6474 10.2087 10.6474Z" fill="#1F1F1F"/>
<path d="M14.667 8.35063H12.0565C11.6928 8.35063 11.3979 8.0558 11.3979 7.69204C11.3979 7.32828 11.6928 7.03345 12.0565 7.03345H14.667C15.0308 7.03345 15.3256 7.32828 15.3256 7.69204C15.3256 8.0558 15.0308 8.35063 14.667 8.35063Z" fill="#1F1F1F"/>
<path d="M13.3617 12.9441C12.998 12.9441 12.7031 12.6493 12.7031 12.2855V7.69204C12.7031 7.32828 12.998 7.03345 13.3617 7.03345C13.7255 7.03345 14.0203 7.32828 14.0203 7.69204V12.2855C14.0203 12.6493 13.7257 12.9441 13.3617 12.9441Z" fill="#1F1F1F"/>
</svg>
